<svg width="544" height="540" viewBox="0 0 544 540" fill="none" xmlns="http://www.w3.org/2000/svg">
<path d="M446.875 16.1016L528.9 101.252C536.725 109.852 543.75 127.827 543.75 139.527V391.877C543.75 403.602 534.375 414.527 521.875 414.527H375.775V376.252H498.425C502.325 376.252 505.45 373.127 505.45 369.227V156.727C505.45 152.827 502.325 149.702 498.425 149.702H407.8C403.9 149.702 399.975 146.577 399.975 142.677V45.8016C399.975 41.9016 396.85 38.7766 392.95 38.7766H244.5C240.6 38.7766 236.675 41.9016 236.675 45.8016V99.7016C228.85 96.5766 218.7 95.0016 210.9 95.0016H199.175V22.3516C199.175 9.85156 209.325 0.476562 221.05 0.476562H410.125C421.85 0.476562 439.05 7.50156 446.875 16.1016ZM445.325 111.402H478.15C482.05 111.402 482.85 109.052 480.5 105.927L443 67.6516C440.65 64.5266 438.3 65.3016 438.3 69.2266V104.377C438.3 108.277 441.425 111.402 445.325 111.402ZM248.45 141.102L329.7 227.052C338.3 235.652 344.55 252.827 344.55 264.552V516.902C344.55 529.402 335.175 539.552 323.45 539.552H22.6754C10.1754 539.552 0.0253906 529.402 0.0253906 516.902V147.377C0.0253906 135.652 10.1754 124.727 22.6754 124.727H210.95C222.675 124.727 239.85 132.552 248.45 141.127V141.102ZM45.3254 501.252H299.225C303.125 501.252 307.05 498.127 307.05 494.227V281.727C307.05 277.827 303.15 274.702 299.225 274.702H208.6C204.7 274.702 201.575 271.577 201.575 267.677V170.802C201.575 166.902 198.45 163.777 194.55 163.777H45.3254C41.4254 163.777 38.3004 166.902 38.3004 170.802V494.252C38.3004 498.152 41.4254 501.252 45.3254 501.252ZM281.25 231.727L244.525 191.877C241.4 188.752 239.05 191.102 239.05 195.002V229.377C239.05 233.277 242.95 236.402 246.875 236.402H278.9C282.8 236.402 284.375 234.077 281.25 231.727Z" fill="black"/>
</svg>
