<svg width="50" height="50" viewBox="0 0 50 50" fill="none" xmlns="http://www.w3.org/2000/svg">
<path d="M46.875 17.2324C46.7966 19.9525 45.6782 22.5389 43.75 24.459L36.9629 31.25C35.9744 32.2439 34.7986 33.0319 33.5035 33.5683C32.2084 34.1047 30.8197 34.3789 29.418 34.375H29.4082C27.9825 34.374 26.5714 34.0873 25.2584 33.5318C23.9454 32.9763 22.757 32.1633 21.7634 31.1408C20.7699 30.1183 19.9913 28.907 19.4737 27.5786C18.9562 26.2501 18.7101 24.8314 18.75 23.4063C18.7617 22.9919 18.9375 22.5991 19.2387 22.3143C19.54 22.0295 19.942 21.876 20.3564 21.8877C20.7708 21.8994 21.1636 22.0752 21.4484 22.3764C21.7332 22.6777 21.8867 23.0797 21.875 23.4941C21.8465 24.5018 22.0204 25.505 22.3862 26.4443C22.752 27.3837 23.3024 28.2402 24.0049 28.9632C24.7073 29.6862 25.5476 30.2611 26.476 30.6539C27.4044 31.0467 28.4021 31.2494 29.4102 31.25C30.4011 31.2525 31.3827 31.0586 32.2983 30.6795C33.2138 30.3003 34.0451 29.7434 34.7441 29.041L41.5312 22.2539C42.9316 20.836 43.714 18.9216 43.7078 16.9287C43.7015 14.9359 42.9071 13.0264 41.498 11.6173C40.0888 10.2081 38.1794 9.41369 36.1865 9.40745C34.1937 9.40122 32.2793 10.1837 30.8613 11.584L28.7129 13.7324C28.4175 14.0131 28.0241 14.1672 27.6167 14.162C27.2092 14.1568 26.82 13.9926 26.5318 13.7045C26.2437 13.4164 26.0795 13.0271 26.0743 12.6197C26.0691 12.2122 26.2232 11.8189 26.5039 11.5234L28.6523 9.37501C29.6435 8.38346 30.8204 7.59691 32.1156 7.06027C33.4109 6.52363 34.7992 6.24742 36.2012 6.24742C37.6032 6.24742 38.9915 6.52363 40.2867 7.06027C41.582 7.59691 42.7588 8.38346 43.75 9.37501C44.7767 10.4042 45.5832 11.6316 46.1204 12.9824C46.6576 14.3332 46.9144 15.7792 46.875 17.2324ZM21.2891 36.2617L19.1406 38.4102C18.4399 39.1156 17.6059 39.6746 16.6872 40.0549C15.7685 40.4351 14.7833 40.6289 13.7891 40.625C12.2975 40.6238 10.8397 40.1805 9.59993 39.3511C8.36017 38.5218 7.39406 37.3435 6.82366 35.9653C6.25327 34.5871 6.10419 33.0707 6.39525 31.6078C6.68632 30.1449 7.40448 28.801 8.45899 27.7461L15.2344 20.959C16.3015 19.8862 17.6666 19.1591 19.1523 18.8721C20.638 18.585 22.1757 18.7514 23.5657 19.3495C24.9556 19.9476 26.1336 20.9498 26.9467 22.226C27.7598 23.5022 28.1703 24.9934 28.125 26.5059C28.1133 26.9203 28.2668 27.3223 28.5516 27.6236C28.8364 27.9249 29.2292 28.1007 29.6436 28.1123C30.058 28.124 30.46 27.9705 30.7613 27.6857C31.0625 27.401 31.2383 27.0082 31.25 26.5938C31.2875 25.1428 31.0299 23.6994 30.4927 22.3511C29.9555 21.0028 29.15 19.7776 28.125 18.75C26.1234 16.7493 23.4092 15.6254 20.5791 15.6254C17.749 15.6254 15.0348 16.7493 13.0332 18.75L6.25 25.5371C4.75826 27.0282 3.74202 28.9281 3.32971 30.9966C2.91739 33.0651 3.12751 35.2095 3.9335 37.1586C4.73949 39.1077 6.10518 40.7742 7.85799 41.9474C9.6108 43.1206 11.672 43.7479 13.7812 43.75C15.1833 43.754 16.5723 43.4799 17.8677 42.9435C19.1632 42.4071 20.3393 41.6191 21.3281 40.625L23.4766 38.4766C23.7294 38.1787 23.8615 37.797 23.8468 37.4065C23.8321 37.0161 23.6717 36.6453 23.3971 36.3674C23.1226 36.0894 22.7538 35.9243 22.3636 35.9048C21.9734 35.8852 21.59 36.0126 21.2891 36.2617Z" fill="#7E7E7E"/>
</svg>
