<svg width="324" height="187" viewBox="0 0 324 187" fill="none" xmlns="http://www.w3.org/2000/svg">
<path d="M5.4043 121.453H318.404" stroke="black" stroke-width="10" stroke-miterlimit="2.6131" stroke-linecap="round" stroke-linejoin="round"/>
<path d="M5.4043 181.453H318.404" stroke="black" stroke-width="10" stroke-miterlimit="2.6131" stroke-linecap="round" stroke-linejoin="round"/>
<path d="M5.4043 151.453H318.404" stroke="black" stroke-width="10" stroke-miterlimit="2.6131" stroke-linecap="round" stroke-linejoin="round"/>
<path d="M80.9863 7.95063C84.1993 7.95063 86.7843 10.5536 86.7843 13.7656" stroke="black" stroke-width="10" stroke-miterlimit="2.6131" stroke-linecap="round" stroke-linejoin="round"/>
<path d="M87.1816 13.7287L87.1816 81.8438" stroke="black" stroke-width="10" stroke-miterlimit="2.6131" stroke-linecap="round" stroke-linejoin="round"/>
<path d="M87.5812 81.8725C87.5812 85.0855 84.9962 87.6875 81.7832 87.6875" stroke="black" stroke-width="10" stroke-miterlimit="2.6131" stroke-linecap="round" stroke-linejoin="round"/>
<path d="M81.8149 88.0859L13.7539 88.0859" stroke="black" stroke-width="10" stroke-miterlimit="2.6131" stroke-linecap="round" stroke-linejoin="round"/>
<path d="M13.726 88.4844C10.495 88.4844 7.875 85.8814 7.875 82.6694" stroke="black" stroke-width="10" stroke-miterlimit="2.6131" stroke-linecap="round" stroke-linejoin="round"/>
<path d="M7.47461 82.7031L7.47461 14.5881" stroke="black" stroke-width="10" stroke-miterlimit="2.6131" stroke-linecap="round" stroke-linejoin="round"/>
<path d="M7.07617 14.5625C7.07617 11.3495 9.69617 8.74751 12.9272 8.74751" stroke="black" stroke-width="10" stroke-miterlimit="2.6131" stroke-linecap="round" stroke-linejoin="round"/>
<path d="M12.8945 8.34375L80.9555 8.34375" stroke="black" stroke-width="10" stroke-miterlimit="2.6131" stroke-linecap="round" stroke-linejoin="round"/>
<path d="M196.543 6.70063C199.773 6.70063 202.342 9.30363 202.342 12.5156" stroke="black" stroke-width="10" stroke-miterlimit="2.6131" stroke-linecap="round" stroke-linejoin="round"/>
<path d="M202.746 12.4787V80.5938" stroke="black" stroke-width="10" stroke-miterlimit="2.6131" stroke-linecap="round" stroke-linejoin="round"/>
<path d="M203.139 80.6225C203.139 83.8355 200.573 86.4375 197.34 86.4375" stroke="black" stroke-width="10" stroke-miterlimit="2.6131" stroke-linecap="round" stroke-linejoin="round"/>
<path d="M197.374 86.8359L129.279 86.8359" stroke="black" stroke-width="10" stroke-miterlimit="2.6131" stroke-linecap="round" stroke-linejoin="round"/>
<path d="M129.249 87.2422C126.018 87.2422 123.398 84.6392 123.398 81.4272" stroke="black" stroke-width="10" stroke-miterlimit="2.6131" stroke-linecap="round" stroke-linejoin="round"/>
<path d="M123 81.4531L123 13.3381" stroke="black" stroke-width="10" stroke-miterlimit="2.6131" stroke-linecap="round" stroke-linejoin="round"/>
<path d="M122.602 13.3125C122.602 10.0995 125.221 7.49751 128.453 7.49751" stroke="black" stroke-width="10" stroke-miterlimit="2.6131" stroke-linecap="round" stroke-linejoin="round"/>
<path d="M128.42 7.10156L196.515 7.10156" stroke="black" stroke-width="10" stroke-miterlimit="2.6131" stroke-linecap="round" stroke-linejoin="round"/>
<path d="M312.074 5.45063C315.322 5.45063 317.872 8.05363 317.872 11.2656" stroke="black" stroke-width="10" stroke-miterlimit="2.6131" stroke-linecap="round" stroke-linejoin="round"/>
<path d="M318.27 11.2366V79.3516" stroke="black" stroke-width="10" stroke-miterlimit="2.6131" stroke-linecap="round" stroke-linejoin="round"/>
<path d="M318.671 79.3803C318.671 82.5933 316.121 85.1953 312.873 85.1953" stroke="black" stroke-width="10" stroke-miterlimit="2.6131" stroke-linecap="round" stroke-linejoin="round"/>
<path d="M312.907 85.5938L244.828 85.5938" stroke="black" stroke-width="10" stroke-miterlimit="2.6131" stroke-linecap="round" stroke-linejoin="round"/>
<path d="M244.796 85.9922C241.583 85.9922 238.963 83.3892 238.963 80.1772" stroke="black" stroke-width="10" stroke-miterlimit="2.6131" stroke-linecap="round" stroke-linejoin="round"/>
<path d="M238.564 80.2109V12.0959" stroke="black" stroke-width="10" stroke-miterlimit="2.6131" stroke-linecap="round" stroke-linejoin="round"/>
<path d="M238.164 12.0625C238.164 8.8495 240.784 6.24751 243.997 6.24751" stroke="black" stroke-width="10" stroke-miterlimit="2.6131" stroke-linecap="round" stroke-linejoin="round"/>
<path d="M243.967 5.85156L312.046 5.85156" stroke="black" stroke-width="10" stroke-miterlimit="2.6131" stroke-linecap="round" stroke-linejoin="round"/>
</svg>
