<svg width="370" height="322" viewBox="0 0 370 322" fill="none" xmlns="http://www.w3.org/2000/svg">
<path d="M116.404 276.547H365" stroke="black" stroke-width="10" stroke-miterlimit="2.6131" stroke-linecap="round" stroke-linejoin="round"/>
<path d="M116.404 161H365" stroke="black" stroke-width="10" stroke-miterlimit="2.6131" stroke-linecap="round" stroke-linejoin="round"/>
<path d="M116.404 45.4531H365" stroke="black" stroke-width="10" stroke-miterlimit="2.6131" stroke-linecap="round" stroke-linejoin="round"/>
<path d="M84.7447 79.5078C84.7447 82.7208 82.1417 85.3058 78.9297 85.3058" stroke="black" stroke-width="10" stroke-miterlimit="2.6131" stroke-linecap="round" stroke-linejoin="round"/>
<path d="M78.9295 85.3047H10.8145" stroke="black" stroke-width="10" stroke-miterlimit="2.6131" stroke-linecap="round" stroke-linejoin="round"/>
<path d="M10.815 85.3058C7.602 85.3058 5 82.7208 5 79.5078" stroke="black" stroke-width="10" stroke-miterlimit="2.6131" stroke-linecap="round" stroke-linejoin="round"/>
<path d="M5 79.5063V11.4453" stroke="black" stroke-width="10" stroke-miterlimit="2.6131" stroke-linecap="round" stroke-linejoin="round"/>
<path d="M5 11.4447C5 8.21375 7.603 5.59375 10.815 5.59375" stroke="black" stroke-width="10" stroke-miterlimit="2.6131" stroke-linecap="round" stroke-linejoin="round"/>
<path d="M10.8145 5.59375H78.9295" stroke="black" stroke-width="10" stroke-miterlimit="2.6131" stroke-linecap="round" stroke-linejoin="round"/>
<path d="M78.9297 5.59375C82.1427 5.59375 84.7447 8.21375 84.7447 11.4447" stroke="black" stroke-width="10" stroke-miterlimit="2.6131" stroke-linecap="round" stroke-linejoin="round"/>
<path d="M84.7441 11.4453V79.5063" stroke="black" stroke-width="10" stroke-miterlimit="2.6131" stroke-linecap="round" stroke-linejoin="round"/>
<path d="M84.7447 195.07C84.7447 198.3 82.1417 200.869 78.9297 200.869" stroke="black" stroke-width="10" stroke-miterlimit="2.6131" stroke-linecap="round" stroke-linejoin="round"/>
<path d="M78.9295 200.875H10.8145" stroke="black" stroke-width="10" stroke-miterlimit="2.6131" stroke-linecap="round" stroke-linejoin="round"/>
<path d="M10.815 200.869C7.602 200.869 5 198.303 5 195.07" stroke="black" stroke-width="10" stroke-miterlimit="2.6131" stroke-linecap="round" stroke-linejoin="round"/>
<path d="M5 195.072V126.977" stroke="black" stroke-width="10" stroke-miterlimit="2.6131" stroke-linecap="round" stroke-linejoin="round"/>
<path d="M5 126.976C5 123.745 7.603 121.125 10.815 121.125" stroke="black" stroke-width="10" stroke-miterlimit="2.6131" stroke-linecap="round" stroke-linejoin="round"/>
<path d="M10.8145 121.125H78.9295" stroke="black" stroke-width="10" stroke-miterlimit="2.6131" stroke-linecap="round" stroke-linejoin="round"/>
<path d="M78.9297 121.125C82.1427 121.125 84.7447 123.744 84.7447 126.976" stroke="black" stroke-width="10" stroke-miterlimit="2.6131" stroke-linecap="round" stroke-linejoin="round"/>
<path d="M84.7441 126.977V195.072" stroke="black" stroke-width="10" stroke-miterlimit="2.6131" stroke-linecap="round" stroke-linejoin="round"/>
<path d="M84.7447 310.609C84.7447 313.857 82.1417 316.407 78.9297 316.407" stroke="black" stroke-width="10" stroke-miterlimit="2.6131" stroke-linecap="round" stroke-linejoin="round"/>
<path d="M78.9295 316.406H10.8145" stroke="black" stroke-width="10" stroke-miterlimit="2.6131" stroke-linecap="round" stroke-linejoin="round"/>
<path d="M10.815 316.407C7.602 316.407 5 313.857 5 310.609" stroke="black" stroke-width="10" stroke-miterlimit="2.6131" stroke-linecap="round" stroke-linejoin="round"/>
<path d="M5 310.61V242.531" stroke="black" stroke-width="10" stroke-miterlimit="2.6131" stroke-linecap="round" stroke-linejoin="round"/>
<path d="M5 242.528C5 239.315 7.603 236.695 10.815 236.695" stroke="black" stroke-width="10" stroke-miterlimit="2.6131" stroke-linecap="round" stroke-linejoin="round"/>
<path d="M10.8145 236.695H78.9295" stroke="black" stroke-width="10" stroke-miterlimit="2.6131" stroke-linecap="round" stroke-linejoin="round"/>
<path d="M78.9297 236.695C82.1427 236.695 84.7447 239.315 84.7447 242.528" stroke="black" stroke-width="10" stroke-miterlimit="2.6131" stroke-linecap="round" stroke-linejoin="round"/>
<path d="M84.7441 242.531V310.61" stroke="black" stroke-width="10" stroke-miterlimit="2.6131" stroke-linecap="round" stroke-linejoin="round"/>
</svg>
