<svg width="65" height="58" viewBox="0 0 65 58" fill="none" xmlns="http://www.w3.org/2000/svg">
<path d="M60.2575 5.64104C57.0516 2.00332 52.604 0 47.7344 0C40.8855 0 36.5494 4.09043 34.118 7.52197C33.4872 8.41242 32.9506 9.30528 32.5 10.1455C32.0494 9.30528 31.5129 8.41242 30.882 7.52197C28.4506 4.09043 24.1145 0 17.2656 0C12.396 0 7.94841 2.00345 4.74233 5.64116C1.68429 9.1113 0 13.7588 0 18.7275C0 24.1361 2.11161 29.1666 6.64536 34.5585C10.6973 39.3777 16.5266 44.3451 23.2769 50.0972C25.7922 52.2407 28.3933 54.4573 31.1625 56.8802L31.2457 56.9531C31.6047 57.2674 32.0524 57.4245 32.5 57.4245C32.9476 57.4245 33.3953 57.2673 33.7543 56.9531L33.8375 56.8802C36.6067 54.4573 39.2078 52.2408 41.7235 50.097C48.4734 44.3452 54.3027 39.3778 58.3546 34.5585C62.8884 29.1665 65 24.1361 65 18.7275C65 13.7588 63.3157 9.1113 60.2575 5.64104ZM39.253 47.1984C37.0847 49.0461 34.8531 50.9477 32.5 52.9933C30.1471 50.9479 27.9153 49.0462 25.7466 47.1981C12.536 35.9408 3.80859 28.5038 3.80859 18.7275C3.80859 14.6866 5.15493 10.9333 7.59967 8.15928C10.0725 5.35374 13.5051 3.80859 17.2656 3.80859C22.4871 3.80859 25.8624 7.02533 27.7743 9.72385C29.4893 12.1441 30.3842 14.5839 30.6894 15.5204C30.9447 16.3043 31.6756 16.8349 32.5 16.8349C33.3244 16.8349 34.0553 16.3043 34.3106 15.5204C34.6158 14.5839 35.5107 12.1441 37.2257 9.72372C39.1376 7.02533 42.5129 3.80859 47.7344 3.80859C51.4949 3.80859 54.9275 5.35374 57.4002 8.15928C59.8451 10.9333 61.1914 14.6866 61.1914 18.7275C61.1914 28.5038 52.464 35.9408 39.253 47.1984Z" fill="black"/>
</svg>
