<svg width="102" height="102" viewBox="0 0 102 102" fill="none" xmlns="http://www.w3.org/2000/svg">
<circle cx="51" cy="51" r="50" stroke="black" stroke-width="2"/>
<path d="M57.253 69.1984C55.0847 71.0461 52.8531 72.9477 50.5 74.9933C48.147 72.948 45.9153 71.0462 43.7466 69.1982C30.536 57.9408 21.8086 50.5038 21.8086 40.7275C21.8086 36.6866 23.1549 32.9334 25.5997 30.1593C28.0725 27.3538 31.5051 25.8086 35.2656 25.8086C40.4871 25.8086 43.8624 29.0254 45.7743 31.7239C47.4893 34.1441 48.3842 36.5839 48.6894 37.5204C48.9447 38.3044 49.6756 38.8349 50.5 38.8349C51.3244 38.8349 52.0553 38.3044 52.3106 37.5204C52.6158 36.5839 53.5107 34.1441 55.2257 31.7238C57.1376 29.0254 60.5129 25.8086 65.7344 25.8086C69.4949 25.8086 72.9275 27.3538 75.4002 30.1593C77.8451 32.9334 79.1914 36.6866 79.1914 40.7275C79.1914 50.5038 70.464 57.9408 57.253 69.1984Z" fill="black"/>
<path fill-rule="evenodd" clip-rule="evenodd" d="M78.2575 27.6411C75.0516 24.0034 70.604 22 65.7344 22C58.8855 22 54.5494 26.0905 52.118 29.522C51.4872 30.4125 50.9506 31.3053 50.5 32.1455C50.0494 31.3053 49.5129 30.4125 48.882 29.522C46.4506 26.0905 42.1145 22 35.2656 22C30.396 22 25.9484 24.0035 22.7423 27.6412C19.6843 31.1113 18 35.7588 18 40.7275C18 46.1361 20.1116 51.1666 24.6454 56.5586C28.6973 61.3777 34.5266 66.3451 41.2769 72.0973L41.2781 72.0983C43.793 74.2414 46.3938 76.4577 49.1625 78.8802L49.2457 78.9531C49.6047 79.2674 50.0524 79.4245 50.5 79.4245C50.9476 79.4245 51.3953 79.2673 51.7543 78.9531L51.8374 78.8802C54.5983 76.4647 57.1921 74.2543 59.7006 72.1165L59.7235 72.097C66.4734 66.3453 72.3027 61.3778 76.3546 56.5586C80.8884 51.1665 83 46.1361 83 40.7275C83 35.7588 81.3157 31.1113 78.2575 27.6411ZM50.5 74.9933C52.8531 72.9477 55.0847 71.0461 57.253 69.1984C70.464 57.9408 79.1914 50.5038 79.1914 40.7275C79.1914 36.6866 77.8451 32.9334 75.4002 30.1593C72.9275 27.3538 69.4949 25.8086 65.7344 25.8086C60.5129 25.8086 57.1376 29.0254 55.2257 31.7238C53.5107 34.1441 52.6158 36.5839 52.3106 37.5204C52.0553 38.3044 51.3244 38.8349 50.5 38.8349C49.6756 38.8349 48.9447 38.3044 48.6894 37.5204C48.3842 36.5839 47.4893 34.1441 45.7743 31.7239C43.8624 29.0254 40.4871 25.8086 35.2656 25.8086C31.5051 25.8086 28.0725 27.3538 25.5997 30.1593C23.1549 32.9334 21.8086 36.6866 21.8086 40.7275C21.8086 50.5038 30.536 57.9408 43.7466 69.1982C45.9153 71.0462 48.147 72.948 50.5 74.9933Z" fill="black"/>
<path d="M57.8872 70.9638C55.5152 72.985 53.0741 75.0653 50.5 77.303C47.9261 75.0655 45.4848 72.9852 43.1123 70.9636C28.661 58.649 19.1139 50.5135 19.1139 39.819C19.1139 35.3986 20.5867 31.2928 23.2611 28.2582C25.9661 25.1892 29.7212 23.4989 33.8348 23.4989C39.5467 23.4989 43.239 27.0178 45.3305 29.9698C47.2065 32.6173 48.1855 35.2862 48.5193 36.3107C48.7986 37.1683 49.5981 37.7486 50.5 37.7486C51.4019 37.7486 52.2014 37.1683 52.4807 36.3107C52.8145 35.2862 53.7935 32.6173 55.6695 29.9696C57.761 27.0178 61.4533 23.4989 67.1652 23.4989C71.2788 23.4989 75.0339 25.1892 77.7388 28.2582C80.4133 31.2928 81.8861 35.3986 81.8861 39.819C81.8861 50.5135 72.339 58.649 57.8872 70.9638Z" fill="black"/>
</svg>
