<svg width="65" height="65" viewBox="0 0 65 65" fill="none" xmlns="http://www.w3.org/2000/svg">
<path d="M60.2575 9.64104C57.0516 6.00332 52.604 4 47.7344 4C40.8855 4 36.5494 8.09043 34.118 11.522C33.4872 12.4124 32.9506 13.3053 32.5 14.1455C32.0494 13.3053 31.5129 12.4124 30.882 11.522C28.4506 8.09043 24.1145 4 17.2656 4C12.396 4 7.94841 6.00345 4.74233 9.64116C1.68429 13.1113 0 17.7588 0 22.7275C0 28.1361 2.11161 33.1666 6.64536 38.5585C10.6973 43.3777 16.5266 48.3451 23.2769 54.0972C25.7922 56.2407 28.3933 58.4573 31.1625 60.8802L31.2457 60.9531C31.6047 61.2674 32.0524 61.4245 32.5 61.4245C32.9476 61.4245 33.3953 61.2673 33.7543 60.9531L33.8375 60.8802C36.6067 58.4573 39.2078 56.2408 41.7235 54.097C48.4734 48.3452 54.3027 43.3778 58.3546 38.5585C62.8884 33.1665 65 28.1361 65 22.7275C65 17.7588 63.3157 13.1113 60.2575 9.64104ZM39.253 51.1984C37.0847 53.0461 34.8531 54.9477 32.5 56.9933C30.1471 54.9479 27.9153 53.0462 25.7466 51.1981C12.536 39.9408 3.80859 32.5038 3.80859 22.7275C3.80859 18.6866 5.15493 14.9333 7.59967 12.1593C10.0725 9.35374 13.5051 7.80859 17.2656 7.80859C22.4871 7.80859 25.8624 11.0253 27.7743 13.7238C29.4893 16.1441 30.3842 18.5839 30.6894 19.5204C30.9447 20.3043 31.6756 20.8349 32.5 20.8349C33.3244 20.8349 34.0553 20.3043 34.3106 19.5204C34.6158 18.5839 35.5107 16.1441 37.2257 13.7237C39.1376 11.0253 42.5129 7.80859 47.7344 7.80859C51.4949 7.80859 54.9275 9.35374 57.4002 12.1593C59.8451 14.9333 61.1914 18.6866 61.1914 22.7275C61.1914 32.5038 52.464 39.9408 39.253 51.1984Z" fill="black"/>
</svg>
