<svg width="65" height="65" viewBox="0 0 65 65" fill="none" xmlns="http://www.w3.org/2000/svg">
<path d="M39.253 51.1984C37.0847 53.0461 34.8531 54.9477 32.5 56.9933C30.147 54.9479 27.9153 53.0462 25.7466 51.1981C12.536 39.9408 3.80859 32.5038 3.80859 22.7275C3.80859 18.6866 5.15493 14.9333 7.59967 12.1593C10.0725 9.35374 13.5051 7.80859 17.2656 7.80859C22.4871 7.80859 25.8624 11.0253 27.7743 13.7238C29.4893 16.1441 30.3842 18.5839 30.6894 19.5204C30.9447 20.3043 31.6756 20.8349 32.5 20.8349C33.3244 20.8349 34.0553 20.3043 34.3106 19.5204C34.6158 18.5839 35.5107 16.1441 37.2257 13.7237C39.1376 11.0253 42.5129 7.80859 47.7344 7.80859C51.4949 7.80859 54.9275 9.35374 57.4002 12.1593C59.8451 14.9333 61.1914 18.6866 61.1914 22.7275C61.1914 32.5038 52.464 39.9408 39.253 51.1984Z" fill="black"/>
<path fill-rule="evenodd" clip-rule="evenodd" d="M60.2575 9.64104C57.0516 6.00332 52.604 4 47.7344 4C40.8855 4 36.5494 8.09043 34.118 11.522C33.4872 12.4124 32.9506 13.3053 32.5 14.1455C32.0494 13.3053 31.5129 12.4124 30.882 11.522C28.4506 8.09043 24.1145 4 17.2656 4C12.396 4 7.94841 6.00345 4.74233 9.64116C1.68429 13.1113 0 17.7588 0 22.7275C0 28.1361 2.11161 33.1666 6.64536 38.5585C10.6973 43.3777 16.5266 48.3451 23.2769 54.0972L23.2781 54.0983C25.793 56.2414 28.3938 58.4577 31.1625 60.8802L31.2457 60.9531C31.6047 61.2674 32.0524 61.4245 32.5 61.4245C32.9476 61.4245 33.3953 61.2673 33.7543 60.9531L33.8374 60.8802C36.5983 58.4646 39.1921 56.2543 41.7006 54.1165L41.7235 54.097C48.4734 48.3452 54.3027 43.3778 58.3546 38.5585C62.8884 33.1665 65 28.1361 65 22.7275C65 17.7588 63.3157 13.1113 60.2575 9.64104ZM32.5 56.9933C34.8531 54.9477 37.0847 53.0461 39.253 51.1984C52.464 39.9408 61.1914 32.5038 61.1914 22.7275C61.1914 18.6866 59.8451 14.9333 57.4002 12.1593C54.9275 9.35374 51.4949 7.80859 47.7344 7.80859C42.5129 7.80859 39.1376 11.0253 37.2257 13.7237C35.5107 16.1441 34.6158 18.5839 34.3106 19.5204C34.0553 20.3043 33.3244 20.8349 32.5 20.8349C31.6756 20.8349 30.9447 20.3043 30.6894 19.5204C30.3842 18.5839 29.4893 16.1441 27.7743 13.7238C25.8624 11.0253 22.4871 7.80859 17.2656 7.80859C13.5051 7.80859 10.0725 9.35374 7.59967 12.1593C5.15493 14.9333 3.80859 18.6866 3.80859 22.7275C3.80859 32.5038 12.536 39.9408 25.7466 51.1981C27.9153 53.0462 30.147 54.9479 32.5 56.9933Z" fill="black"/>
<path d="M39.8872 52.9638C37.5152 54.985 35.0741 57.0652 32.5 59.303C29.9261 57.0655 27.4848 54.9851 25.1123 52.9635C10.661 40.6489 1.11394 32.5134 1.11394 21.819C1.11394 17.3985 2.58673 13.2928 5.26107 10.2582C7.9661 7.18918 11.7212 5.49892 15.8348 5.49892C21.5467 5.49892 25.239 9.01777 27.3305 11.9697C29.2065 14.6173 30.1855 17.2862 30.5193 18.3107C30.7986 19.1682 31.5981 19.7486 32.5 19.7486C33.4019 19.7486 34.2014 19.1682 34.4807 18.3107C34.8145 17.2862 35.7935 14.6173 37.6695 11.9696C39.761 9.01777 43.4533 5.49892 49.1652 5.49892C53.2788 5.49892 57.0339 7.18918 59.7388 10.2582C62.4133 13.2928 63.8861 17.3985 63.8861 21.819C63.8861 32.5134 54.339 40.6489 39.8872 52.9638Z" fill="black"/>
</svg>
