<svg width="104" height="104" viewBox="0 0 104 104" fill="none" xmlns="http://www.w3.org/2000/svg">
<path d="M79.2575 29.641C76.0516 26.0033 71.604 24 66.7344 24C59.8855 24 55.5494 28.0904 53.118 31.522C52.4872 32.4124 51.9506 33.3053 51.5 34.1455C51.0494 33.3053 50.5129 32.4124 49.882 31.522C47.4506 28.0904 43.1145 24 36.2656 24C31.396 24 26.9484 26.0034 23.7423 29.6412C20.6843 33.1113 19 37.7588 19 42.7275C19 48.1361 21.1116 53.1666 25.6454 58.5585C29.6973 63.3777 35.5266 68.3451 42.2769 74.0972C44.7922 76.2407 47.3933 78.4573 50.1625 80.8802L50.2457 80.9531C50.6047 81.2674 51.0524 81.4245 51.5 81.4245C51.9476 81.4245 52.3953 81.2673 52.7543 80.9531L52.8375 80.8802C55.6067 78.4573 58.2078 76.2408 60.7235 74.097C67.4734 68.3452 73.3027 63.3778 77.3546 58.5585C81.8884 53.1665 84 48.1361 84 42.7275C84 37.7588 82.3157 33.1113 79.2575 29.641ZM58.253 71.1984C56.0847 73.0461 53.8531 74.9477 51.5 76.9933C49.1471 74.9479 46.9153 73.0462 44.7466 71.1981C31.536 59.9408 22.8086 52.5038 22.8086 42.7275C22.8086 38.6866 24.1549 34.9333 26.5997 32.1593C29.0725 29.3537 32.5051 27.8086 36.2656 27.8086C41.4871 27.8086 44.8624 31.0253 46.7743 33.7238C48.4893 36.1441 49.3842 38.5839 49.6894 39.5204C49.9447 40.3043 50.6756 40.8349 51.5 40.8349C52.3244 40.8349 53.0553 40.3043 53.3106 39.5204C53.6158 38.5839 54.5107 36.1441 56.2257 33.7237C58.1376 31.0253 61.5129 27.8086 66.7344 27.8086C70.4949 27.8086 73.9275 29.3537 76.4002 32.1593C78.8451 34.9333 80.1914 38.6866 80.1914 42.7275C80.1914 52.5038 71.464 59.9408 58.253 71.1984Z" fill="black"/>
<circle cx="52" cy="52" r="50" stroke="black" stroke-width="4"/>
</svg>
