<svg width="102" height="102" viewBox="0 0 102 102" fill="none" xmlns="http://www.w3.org/2000/svg">
<path d="M78.2575 27.641C75.0516 24.0033 70.604 22 65.7344 22C58.8855 22 54.5494 26.0904 52.118 29.522C51.4872 30.4124 50.9506 31.3053 50.5 32.1455C50.0494 31.3053 49.5129 30.4124 48.882 29.522C46.4506 26.0904 42.1145 22 35.2656 22C30.396 22 25.9484 24.0034 22.7423 27.6412C19.6843 31.1113 18 35.7588 18 40.7275C18 46.1361 20.1116 51.1666 24.6454 56.5585C28.6973 61.3777 34.5266 66.3451 41.2769 72.0972C43.7922 74.2407 46.3933 76.4573 49.1625 78.8802L49.2457 78.9531C49.6047 79.2674 50.0524 79.4245 50.5 79.4245C50.9476 79.4245 51.3953 79.2673 51.7543 78.9531L51.8375 78.8802C54.6067 76.4573 57.2078 74.2408 59.7235 72.097C66.4734 66.3452 72.3027 61.3778 76.3546 56.5585C80.8884 51.1665 83 46.1361 83 40.7275C83 35.7588 81.3157 31.1113 78.2575 27.641ZM57.253 69.1984C55.0847 71.0461 52.8531 72.9477 50.5 74.9933C48.1471 72.9479 45.9153 71.0462 43.7466 69.1981C30.536 57.9408 21.8086 50.5038 21.8086 40.7275C21.8086 36.6866 23.1549 32.9333 25.5997 30.1593C28.0725 27.3537 31.5051 25.8086 35.2656 25.8086C40.4871 25.8086 43.8624 29.0253 45.7743 31.7238C47.4893 34.1441 48.3842 36.5839 48.6894 37.5204C48.9447 38.3043 49.6756 38.8349 50.5 38.8349C51.3244 38.8349 52.0553 38.3043 52.3106 37.5204C52.6158 36.5839 53.5107 34.1441 55.2257 31.7237C57.1376 29.0253 60.5129 25.8086 65.7344 25.8086C69.4949 25.8086 72.9275 27.3537 75.4002 30.1593C77.8451 32.9333 79.1914 36.6866 79.1914 40.7275C79.1914 50.5038 70.464 57.9408 57.253 69.1984Z" fill="black"/>
<circle cx="51" cy="51" r="50" stroke="black" stroke-width="2"/>
</svg>
