<svg width="65" height="59" viewBox="0 0 65 59" fill="none" xmlns="http://www.w3.org/2000/svg">
<path d="M63.4273 11.9331C62.4188 9.59792 60.9647 7.48182 59.146 5.70322C57.3264 3.91933 55.1807 2.50171 52.8261 1.52742C50.3844 0.513135 47.7655 -0.00603261 45.1213 5.2885e-05C41.4121 5.2885e-05 37.7929 1.01579 34.6479 2.93441C33.8955 3.39339 33.1808 3.89749 32.5035 4.44674C31.8265 3.89749 31.1118 3.39339 30.3594 2.93441C27.2143 1.01579 23.5953 5.2885e-05 19.8859 5.2885e-05C17.2149 5.2885e-05 14.6267 0.511683 12.1813 1.52742C9.81882 2.50554 7.68952 3.91254 5.86121 5.70322C4.04036 7.4798 2.58583 9.59643 1.58004 11.9331C0.534205 14.3633 0 16.9441 0 19.6C0 22.1055 0.511634 24.7164 1.52737 27.3723C2.37758 29.5919 3.59648 31.8942 5.15394 34.2192C7.62183 37.8982 11.0151 41.7355 15.2286 45.6254C22.2109 52.0737 29.1254 56.5278 29.4188 56.7082L31.202 57.8519C31.9921 58.356 33.0079 58.356 33.7977 57.8519L35.581 56.7082C35.8744 56.5204 42.7813 52.0737 49.7714 45.6254C53.9847 41.7355 57.378 37.8982 59.8458 34.2192C61.4035 31.8942 62.6297 29.5919 63.4724 27.3723C64.4884 24.7164 64.9999 22.1055 64.9999 19.6C65.0074 16.9441 64.4731 14.3633 63.4273 11.9331Z" fill="black"/>
</svg>
