<svg width="50" height="50" viewBox="0 0 50 50" fill="none" xmlns="http://www.w3.org/2000/svg">
<path d="M16.6667 39.5833H10.4167V18.75H16.6667V39.5833ZM39.5833 39.5833H33.3333V28.4542C33.3333 25.5542 32.3 24.1104 30.2521 24.1104C28.6292 24.1104 27.6 24.9188 27.0833 26.5375V39.5833H20.8333C20.8333 39.5833 20.9167 20.8333 20.8333 18.75H25.7667L26.1479 22.9167H26.2771C27.5583 20.8333 29.6063 19.4208 32.4146 19.4208C34.55 19.4208 36.2771 20.0146 37.5958 21.5063C38.9229 23 39.5833 25.0042 39.5833 27.8188V39.5833Z" fill="#7E7E7E"/>
<path d="M13.5417 16.6667C15.3251 16.6667 16.7708 15.2676 16.7708 13.5417C16.7708 11.8158 15.3251 10.4167 13.5417 10.4167C11.7582 10.4167 10.3125 11.8158 10.3125 13.5417C10.3125 15.2676 11.7582 16.6667 13.5417 16.6667Z" fill="#7E7E7E"/>
</svg>
