<svg width="16" height="14" viewBox="0 0 20 18" fill="none" xmlns="http://www.w3.org/2000/svg">
<mask id="path-1-inside-1_1_2" fill="white">
<path d="M19.5161 3.67173C19.2058 2.95321 18.7584 2.3021 18.1988 1.75484C17.6389 1.20595 16.9787 0.769757 16.2542 0.469977C15.5029 0.157888 14.6971 -0.00185619 13.8835 1.62724e-05C12.7422 1.62724e-05 11.6286 0.312551 10.6609 0.902896C10.4294 1.04412 10.2095 1.19923 10.0011 1.36823C9.79279 1.19923 9.57286 1.04412 9.34135 0.902896C8.37364 0.312551 7.26009 1.62724e-05 6.11876 1.62724e-05C5.2969 1.62724e-05 4.50052 0.157441 3.74811 0.469977C3.02118 0.770936 2.36601 1.20386 1.80345 1.75484C1.24319 2.30148 0.795642 2.95275 0.486167 3.67173C0.164371 4.41949 0 5.21357 0 6.03079C0 6.80171 0.157426 7.60504 0.469961 8.42226C0.731565 9.10521 1.10661 9.81362 1.58583 10.529C2.34518 11.661 3.38928 12.8417 4.68572 14.0386C6.83412 16.0227 8.96167 17.3932 9.05196 17.4487L9.60064 17.8006C9.84372 17.9557 10.1563 17.9557 10.3993 17.8006L10.948 17.4487C11.0383 17.3909 13.1635 16.0227 15.3143 14.0386C16.6107 12.8417 17.6548 11.661 18.4141 10.529C18.8934 9.81362 19.2707 9.10521 19.53 8.42226C19.8426 7.60504 20 6.80171 20 6.03079C20.0023 5.21357 19.8379 4.41949 19.5161 3.67173Z"></path>
</mask>
<path d="M18.1988 1.75484L17.4988 2.46896L17.4996 2.46974L18.1988 1.75484ZM16.2542 0.469977L15.8706 1.39347L15.8719 1.39401L16.2542 0.469977ZM13.8835 1.62724e-05V1.00002L13.8858 1.00001L13.8835 1.62724e-05ZM10.6609 0.902896L11.1817 1.7566L11.1817 1.75658L10.6609 0.902896ZM10.0011 1.36823L9.3712 2.14487L10.0011 2.65582L10.6311 2.14487L10.0011 1.36823ZM9.34135 0.902896L8.82056 1.75658L8.82059 1.7566L9.34135 0.902896ZM3.74811 0.469977L4.13064 1.39392L4.13172 1.39347L3.74811 0.469977ZM1.80345 1.75484L2.5018 2.4706L2.50317 2.46926L1.80345 1.75484ZM0.486167 3.67173L-0.432356 3.27636L-0.432389 3.27643L0.486167 3.67173ZM0.469961 8.42226L-0.464064 8.77947L-0.463873 8.77997L0.469961 8.42226ZM1.58583 10.529L0.755023 11.0855L0.755351 11.086L1.58583 10.529ZM4.68572 14.0386L5.36417 13.304L5.36406 13.3039L4.68572 14.0386ZM9.05196 17.4487L9.59182 16.607L9.58399 16.602L9.57606 16.5971L9.05196 17.4487ZM9.60064 17.8006L9.06078 18.6424L9.06272 18.6436L9.60064 17.8006ZM10.3993 17.8006L10.9373 18.6436L10.9392 18.6424L10.3993 17.8006ZM10.948 17.4487L10.4083 16.6069L10.4082 16.607L10.948 17.4487ZM15.3143 14.0386L15.9923 14.7736L15.9926 14.7734L15.3143 14.0386ZM18.4141 10.529L19.2446 11.086L19.245 11.0855L18.4141 10.529ZM19.53 8.42226L18.596 8.06505L18.5951 8.06732L19.53 8.42226ZM20 6.03079L19 6.02795V6.03079H20ZM20.4342 3.27524C20.0723 2.43737 19.5505 1.67811 18.8981 1.03994L17.4996 2.46974C17.9662 2.9261 18.3393 3.46905 18.5981 4.06821L20.4342 3.27524ZM18.8989 1.04072C18.2474 0.40216 17.4794 -0.105296 16.6365 -0.454052L15.8719 1.39401C16.478 1.64481 17.0304 2.00975 17.4988 2.46896L18.8989 1.04072ZM16.6378 -0.453515C15.7642 -0.816409 14.8272 -1.00216 13.8812 -0.999981L13.8858 1.00001C14.5669 0.998446 15.2416 1.13219 15.8706 1.39347L16.6378 -0.453515ZM13.8835 -0.999984C12.5593 -0.999984 11.2654 -0.637258 10.1402 0.0492096L11.1817 1.75658C11.9919 1.26236 12.9251 1.00002 13.8835 1.00002V-0.999984ZM10.1402 0.0491915C9.87102 0.213384 9.61457 0.394188 9.3712 0.591583L10.6311 2.14487C10.8044 2.00426 10.9879 1.87485 11.1817 1.7566L10.1402 0.0491915ZM10.6311 0.591583C10.3877 0.394188 10.1313 0.213384 9.86211 0.0491915L8.82059 1.7566C9.01444 1.87485 9.19785 2.00426 9.3712 2.14487L10.6311 0.591583ZM9.86214 0.0492096C8.73686 -0.637258 7.443 -0.999984 6.11876 -0.999984V1.00002C7.07718 1.00002 8.01042 1.26236 8.82056 1.75658L9.86214 0.0492096ZM6.11876 -0.999984C5.16699 -0.999984 4.2401 -0.817227 3.36451 -0.45352L4.13172 1.39347C4.76093 1.13211 5.42681 1.00002 6.11876 1.00002V-0.999984ZM3.36559 -0.453969C2.52035 -0.104031 1.75754 0.400065 1.10373 1.04042L2.50317 2.46926C2.97448 2.00765 3.522 1.6459 4.13064 1.39392L3.36559 -0.453969ZM1.10509 1.03909C0.451194 1.6771 -0.0711563 2.43721 -0.432356 3.27636L1.40469 4.06709C1.66244 3.46828 2.03519 2.92587 2.5018 2.47059L1.10509 1.03909ZM-0.432389 3.27643C-0.807773 4.14873 -1 5.07727 -1 6.03079H1C1 5.34986 1.13651 4.69026 1.40472 4.06702L-0.432389 3.27643ZM-1 6.03079C-1 6.93862 -0.814588 7.86291 -0.464064 8.77947L1.40399 8.06505C1.12944 7.34716 1 6.66479 1 6.03079H-1ZM-0.463873 8.77997C-0.171322 9.5437 0.241131 10.3184 0.755023 11.0855L2.41664 9.97242C1.97209 9.30881 1.63445 8.66671 1.4038 8.06455L-0.463873 8.77997ZM0.755351 11.086C1.56916 12.2993 2.66982 13.5385 4.00739 14.7734L5.36406 13.3039C4.10873 12.145 3.1212 11.0228 2.41631 9.97193L0.755351 11.086ZM4.00728 14.7733C6.21604 16.8131 8.39965 18.2215 8.52787 18.3004L9.57606 16.5971C9.57857 16.5986 9.54629 16.5783 9.47574 16.5319C9.40926 16.4883 9.31489 16.4254 9.19655 16.3449C8.95984 16.1837 8.62841 15.9523 8.23349 15.6615C7.44212 15.079 6.40372 14.264 5.36417 13.304L4.00728 14.7733ZM8.5121 18.2905L9.06078 18.6424L10.1405 16.9589L9.59182 16.607L8.5121 18.2905ZM9.06272 18.6436C9.63387 19.0081 10.3661 19.0081 10.9373 18.6436L9.86143 16.9576C9.9464 16.9034 10.0536 16.9034 10.1385 16.9576L9.06272 18.6436ZM10.9392 18.6424L11.4879 18.2905L10.4082 16.607L9.85948 16.9589L10.9392 18.6424ZM11.4877 18.2906C11.5978 18.22 13.779 16.8154 15.9923 14.7736L14.6362 13.3036C12.5481 15.2299 10.4788 16.5617 10.4083 16.6069L11.4877 18.2906ZM15.9926 14.7734C17.3302 13.5385 18.4308 12.2993 19.2446 11.086L17.5837 9.97193C16.8788 11.0228 15.8912 12.145 14.6359 13.3039L15.9926 14.7734ZM19.245 11.0855C19.7577 10.3202 20.1736 9.54439 20.4649 8.7772L18.5951 8.06732C18.3678 8.66603 18.0291 9.30706 17.5833 9.97242L19.245 11.0855ZM20.464 8.77947C20.8146 7.86291 21 6.93862 21 6.03079H19C19 6.66479 18.8705 7.34716 18.596 8.06505L20.464 8.77947ZM21 6.03362C21.0027 5.07818 20.8101 4.14871 20.4347 3.27643L18.5976 4.06702C18.8658 4.69028 19.0019 5.34895 19 6.02795L21 6.03362Z" fill="white" mask="url(#path-1-inside-1_1_2)"></path>
</svg>