<svg width="17" height="17" viewBox="0 0 17 17" fill="none" xmlns="http://www.w3.org/2000/svg">
<g clip-path="url(#clip0_271_1005)">
<path d="M6.91272 7.9924V11.9924" stroke="white" stroke-width="1.5" stroke-linecap="round" stroke-linejoin="round"/>
<path d="M9.57947 7.9924V11.9924" stroke="white" stroke-width="1.5" stroke-linecap="round" stroke-linejoin="round"/>
<path d="M12.9128 4.65906V13.9924C12.9128 14.346 12.7723 14.6852 12.5223 14.9352C12.2722 15.1852 11.9331 15.3257 11.5795 15.3257H4.9128C4.55918 15.3257 4.22004 15.1852 3.96999 14.9352C3.71994 14.6852 3.57947 14.346 3.57947 13.9924V4.65906" stroke="white" stroke-width="1.5" stroke-linecap="round" stroke-linejoin="round"/>
<path d="M2.24609 4.65906H14.2461" stroke="white" stroke-width="1.5" stroke-linecap="round" stroke-linejoin="round"/>
<path d="M5.57947 4.65907V3.32573C5.57947 2.97211 5.71994 2.63297 5.96999 2.38293C6.22004 2.13288 6.55918 1.9924 6.9128 1.9924H9.57947C9.93309 1.9924 10.2722 2.13288 10.5223 2.38293C10.7723 2.63297 10.9128 2.97211 10.9128 3.32573V4.65907" stroke="white" stroke-width="1.5" stroke-linecap="round" stroke-linejoin="round"/>
</g>
<defs>
<clipPath id="clip0_271_1005">
<rect width="16" height="16" fill="white" transform="translate(0.246094 0.659058)"/>
</clipPath>
</defs>
</svg>
