<svg width="360" height="360" viewBox="0 0 360 360" fill="none" xmlns="http://www.w3.org/2000/svg">
<circle cx="180" cy="180" r="180" fill="#D9D9D9"/>
<path d="M230 90C209.35 90 191.27 98.88 180 113.89C168.73 98.88 150.65 90 130 90C113.562 90.0185 97.8031 96.5566 86.1798 108.18C74.5566 119.803 68.0185 135.562 68 152C68 222 171.79 278.66 176.21 281C177.375 281.627 178.677 281.955 180 281.955C181.323 281.955 182.625 281.627 183.79 281C188.21 278.66 292 222 292 152C291.981 135.562 285.443 119.803 273.82 108.18C262.197 96.5566 246.438 90.0185 230 90ZM180 264.8C161.74 254.16 84 205.69 84 152C84.0159 139.805 88.8674 128.114 97.4906 119.491C106.114 110.867 117.805 106.016 130 106C149.45 106 165.78 116.36 172.6 133C173.203 134.467 174.228 135.722 175.546 136.605C176.863 137.489 178.414 137.96 180 137.96C181.586 137.96 183.137 137.489 184.454 136.605C185.772 135.722 186.797 134.467 187.4 133C194.22 116.33 210.55 106 230 106C242.195 106.016 253.886 110.867 262.509 119.491C271.133 128.114 275.984 139.805 276 152C276 205.61 198.24 254.15 180 264.8Z" fill="black"/>
</svg>
