<?xml version="1.0" standalone="no"?>
<!DOCTYPE svg PUBLIC "-//W3C//DTD SVG 20010904//EN"
 "http://www.w3.org/TR/2001/REC-SVG-20010904/DTD/svg10.dtd">
<svg version="1.0" xmlns="http://www.w3.org/2000/svg"
 width="200.000000pt" height="200.000000pt" viewBox="0 0 200.000000 200.000000"
 preserveAspectRatio="xMidYMid meet">

<g transform="translate(0.000000,200.000000) scale(0.100000,-0.100000)"
fill="#000000" stroke="none">
<path d="M400 1788 c-20 -22 -20 -31 -20 -788 l0 -767 23 -21 c45 -42 74 -31
162 62 261 273 429 446 435 446 4 0 121 -119 261 -265 225 -236 257 -265 284
-265 20 0 40 9 53 23 l22 23 0 767 c0 754 0 767 -20 787 -20 20 -33 20 -600
20 l-579 0 -21 -22z"/>
</g>
</svg>
