<svg width="378" height="378" viewBox="0 0 378 378" fill="none" xmlns="http://www.w3.org/2000/svg">
<g filter="url(#filter0_d_22_14)">
<path d="M189 365C288.411 365 369 284.411 369 185C369 85.5887 288.411 5 189 5C89.5887 5 9 85.5887 9 185C9 284.411 89.5887 365 189 365Z" stroke="black" stroke-width="10" shape-rendering="crispEdges"/>
</g>
<path d="M166.461 129.813C176.491 111.827 181.503 102.833 189 102.833C196.497 102.833 201.508 111.827 211.539 129.813L214.135 134.468C216.985 139.583 218.41 142.14 220.627 143.826C222.844 145.512 225.614 146.138 231.156 147.388L236.191 148.528C255.666 152.938 265.396 155.139 267.715 162.588C270.027 170.03 263.393 177.796 250.116 193.321L246.681 197.335C242.912 201.744 241.02 203.953 240.173 206.676C239.326 209.408 239.611 212.353 240.181 218.235L240.704 223.594C242.706 244.312 243.712 254.667 237.648 259.267C231.584 263.874 222.464 259.67 204.239 251.279L199.513 249.11C194.336 246.719 191.747 245.531 189 245.531C186.253 245.531 183.664 246.719 178.486 249.11L173.768 251.279C155.536 259.67 146.416 263.866 140.36 259.275C134.288 254.667 135.293 244.312 137.296 223.594L137.819 218.243C138.389 212.353 138.674 209.408 137.819 206.684C136.979 203.953 135.087 201.744 131.319 197.343L127.883 193.321C114.607 177.804 107.973 170.038 110.284 162.588C112.604 155.139 122.341 152.93 141.816 148.528L146.851 147.388C152.385 146.138 155.148 145.512 157.373 143.826C159.589 142.14 161.014 139.583 163.864 134.468L166.461 129.813Z" stroke="black" stroke-width="11.875"/>
<defs>
<filter id="filter0_d_22_14" x="0" y="0" width="378" height="378" filterUnits="userSpaceOnUse" color-interpolation-filters="sRGB">
<feFlood flood-opacity="0" result="BackgroundImageFix"/>
<feColorMatrix in="SourceAlpha" type="matrix" values="0 0 0 0 0 0 0 0 0 0 0 0 0 0 0 0 0 0 127 0" result="hardAlpha"/>
<feOffset dy="4"/>
<feGaussianBlur stdDeviation="2"/>
<feComposite in2="hardAlpha" operator="out"/>
<feColorMatrix type="matrix" values="0 0 0 0 0 0 0 0 0 0 0 0 0 0 0 0 0 0 0.25 0"/>
<feBlend mode="normal" in2="BackgroundImageFix" result="effect1_dropShadow_22_14"/>
<feBlend mode="normal" in="SourceGraphic" in2="effect1_dropShadow_22_14" result="shape"/>
</filter>
</defs>
</svg>
