<svg width="50" height="50" viewBox="0 0 50 50" fill="none" xmlns="http://www.w3.org/2000/svg">
<path d="M44.7031 5.11524C44.461 4.9062 44.1665 4.76717 43.8512 4.71313C43.536 4.6591 43.212 4.69211 42.9141 4.8086L3.33204 20.2988C2.77107 20.517 2.29615 20.9114 1.97876 21.4228C1.66138 21.9342 1.51872 22.5349 1.57226 23.1344C1.6258 23.7339 1.87264 24.2998 2.27562 24.7469C2.6786 25.1939 3.2159 25.498 3.80665 25.6133L14.0625 27.627V39.0625C14.0605 39.6854 14.2456 40.2945 14.5938 40.811C14.9421 41.3274 15.4374 41.7274 16.0156 41.959C16.593 42.1947 17.2279 42.2513 17.8378 42.1214C18.4477 41.9915 19.0044 41.681 19.4356 41.2305L24.3809 36.1016L32.2266 42.9688C32.7926 43.4708 33.5227 43.7487 34.2793 43.75C34.6109 43.7497 34.9404 43.6977 35.2559 43.5957C35.7714 43.4321 36.2351 43.1363 36.6007 42.7378C36.9663 42.3393 37.2212 41.8519 37.3398 41.3242L45.2676 6.83594C45.3385 6.52491 45.3234 6.20044 45.224 5.89731C45.1246 5.59419 44.9445 5.32384 44.7031 5.11524ZM32.7617 12.1465L15.2637 24.6777L5.57618 22.7774L32.7617 12.1465ZM17.1875 39.0625V29.7891L22.0293 34.0352L17.1875 39.0625ZM34.2832 40.625L18.1348 26.4649L41.377 9.80665L34.2832 40.625Z" fill="#7E7E7E"/>
</svg>
