<svg width="50" height="50" viewBox="0 0 50 50" fill="none" xmlns="http://www.w3.org/2000/svg">
<g clip-path="url(#clip0_136_78)">
<path fill-rule="evenodd" clip-rule="evenodd" d="M41.1521 9.70625C41.3322 9.50024 41.4701 9.26076 41.5577 9.00149C41.6453 8.74221 41.681 8.46823 41.6627 8.19516C41.6444 7.9221 41.5725 7.65531 41.4511 7.41003C41.3297 7.16475 41.1612 6.94578 40.9552 6.76562C40.7492 6.58547 40.5097 6.44765 40.2504 6.36005C39.9912 6.27244 39.7172 6.23676 39.4441 6.25504C39.1711 6.27332 38.9043 6.34521 38.659 6.46659C38.4137 6.58798 38.1947 6.75649 38.0146 6.9625L27.3687 19.1292L18.3333 7.08333C18.1393 6.82459 17.8876 6.61458 17.5984 6.46994C17.3091 6.3253 16.9901 6.25 16.6667 6.25H8.33333C7.94643 6.25 7.56718 6.35774 7.23806 6.56114C6.90894 6.76455 6.64297 7.05558 6.46994 7.40164C6.29692 7.74769 6.22367 8.13509 6.25842 8.52043C6.29316 8.90576 6.43453 9.27381 6.66667 9.58333L20.0771 27.4625L8.84792 40.2958C8.66776 40.5018 8.52994 40.7413 8.44234 41.0006C8.35473 41.2599 8.31905 41.5339 8.33733 41.8069C8.35561 42.08 8.4275 42.3468 8.54889 42.592C8.67027 42.8373 8.83878 43.0563 9.04479 43.2365C9.2508 43.4166 9.49028 43.5544 9.74955 43.642C10.0088 43.7296 10.2828 43.7653 10.5559 43.747C10.8289 43.7288 11.0957 43.6569 11.341 43.5355C11.5863 43.4141 11.8053 43.2456 11.9854 43.0396L22.6313 30.8708L31.6667 42.9167C31.8607 43.1754 32.1124 43.3854 32.4016 43.5301C32.6909 43.6747 33.0099 43.75 33.3333 43.75H41.6667C42.0536 43.75 42.4328 43.6423 42.7619 43.4389C43.0911 43.2355 43.357 42.9444 43.5301 42.5984C43.7031 42.2523 43.7763 41.8649 43.7416 41.4796C43.7068 41.0942 43.5655 40.7262 43.3333 40.4167L29.9229 22.5375L41.1521 9.70625ZM34.375 39.5833L12.5 10.4167H15.625L37.5 39.5833H34.375Z" fill="#7E7E7E"/>
</g>
<defs>
<clipPath id="clip0_136_78">
<rect width="50" height="50" fill="white"/>
</clipPath>
</defs>
</svg>
