<svg width="17" height="17" viewBox="0 0 17 17" fill="none" xmlns="http://www.w3.org/2000/svg">
<path d="M5.83335 15.1939C6.20154 15.1939 6.50002 14.8954 6.50002 14.5272C6.50002 14.159 6.20154 13.8605 5.83335 13.8605C5.46516 13.8605 5.16669 14.159 5.16669 14.5272C5.16669 14.8954 5.46516 15.1939 5.83335 15.1939Z" stroke="black" stroke-width="1.5" stroke-linecap="round" stroke-linejoin="round"/>
<path d="M13.1667 15.1939C13.5349 15.1939 13.8333 14.8954 13.8333 14.5272C13.8333 14.159 13.5349 13.8605 13.1667 13.8605C12.7985 13.8605 12.5 14.159 12.5 14.5272C12.5 14.8954 12.7985 15.1939 13.1667 15.1939Z" stroke="black" stroke-width="1.5" stroke-linecap="round" stroke-linejoin="round"/>
<path d="M1.86664 1.89386H3.19997L4.9733 10.1739C5.03836 10.4771 5.20709 10.7482 5.45045 10.9404C5.69381 11.1327 5.99658 11.2341 6.30664 11.2272H12.8266C13.1301 11.2267 13.4243 11.1227 13.6607 10.9324C13.897 10.7421 14.0614 10.4769 14.1266 10.1805L15.2266 5.22719H3.9133" stroke="black" stroke-width="1.5" stroke-linecap="round" stroke-linejoin="round"/>
</svg>
