<svg width="150" height="150" viewBox="0 0 150 150" fill="none" xmlns="http://www.w3.org/2000/svg">
<rect width="150" height="150" rx="20" fill="#F4F4F4"/>
<path opacity="0.15" d="M45.7101 65.8766C46.1175 61.5996 49.7096 58.3333 54.0059 58.3333H95.994C100.29 58.3333 103.882 61.5996 104.29 65.8766L107.464 99.2099C107.93 104.102 104.083 108.333 99.1686 108.333H50.8313C45.9168 108.333 42.0696 104.102 42.5355 99.2099L45.7101 65.8766Z" fill="#6D31ED"/>
<path d="M58.3333 70.875V70.8333M91.6667 70.875V70.8333M58.3333 58.3333V54.1667C58.3333 49.7464 60.0893 45.5072 63.2149 42.3816C66.3405 39.2559 70.5797 37.5 75 37.5C79.4203 37.5 83.6595 39.2559 86.7851 42.3816C89.9107 45.5072 91.6667 49.7464 91.6667 54.1667V58.3333M58.3333 58.3333H53.5011C49.167 58.3333 45.5565 61.6555 45.1966 65.9746L42.4188 99.308C42.0139 104.166 45.848 108.333 50.7233 108.333H99.2767C104.152 108.333 107.986 104.166 107.581 99.308L104.803 65.9746C104.444 61.6555 100.833 58.3333 96.4989 58.3333H91.6667M58.3333 58.3333H91.6667" stroke="#6D31ED" stroke-width="1.5" stroke-linecap="round" stroke-linejoin="round"/>
<path opacity="0.2" fill-rule="evenodd" clip-rule="evenodd" d="M104.75 32.75C104.06 32.75 103.5 33.3096 103.5 34V34.711C103.5 35.2457 103.141 35.7103 102.647 35.9154C102.153 36.1205 101.578 36.0423 101.2 35.664L100.697 35.1611C100.209 34.673 99.4171 34.673 98.9289 35.1611L97.1611 36.9289C96.673 37.4171 96.673 38.2085 97.1611 38.6967L97.664 39.1996C98.0423 39.5779 98.1205 40.1531 97.9154 40.6472C97.7103 41.1411 97.2457 41.5 96.711 41.5L96 41.5C95.3096 41.5 94.75 42.0596 94.75 42.75V45.25C94.75 45.9404 95.3096 46.5 96 46.5H96.711C97.2457 46.5 97.7103 46.8589 97.9154 47.3528C98.1205 47.8468 98.0423 48.4221 97.664 48.8004L97.1611 49.3033C96.673 49.7914 96.673 50.5829 97.1611 51.071L98.9289 52.8388C99.417 53.327 100.208 53.327 100.697 52.8388L101.199 52.336C101.578 51.9577 102.153 51.8795 102.647 52.0846C103.141 52.2897 103.5 52.7543 103.5 53.2891V54C103.5 54.6904 104.06 55.25 104.75 55.25H107.25C107.94 55.25 108.5 54.6904 108.5 54V53.289C108.5 52.7543 108.859 52.2897 109.353 52.0846C109.847 51.8795 110.422 51.9577 110.8 52.336L111.303 52.8388C111.791 53.327 112.583 53.327 113.071 52.8388L114.839 51.071C115.327 50.5829 115.327 49.7914 114.839 49.3033L114.336 48.8004C113.958 48.4222 113.88 47.8469 114.085 47.3528C114.29 46.8589 114.754 46.5 115.289 46.5H116C116.69 46.5 117.25 45.9404 117.25 45.25V42.75C117.25 42.0596 116.69 41.5 116 41.5H115.289C114.754 41.5 114.29 41.1411 114.085 40.6472C113.879 40.1531 113.958 39.5778 114.336 39.1995L114.839 38.6967C115.327 38.2085 115.327 37.4171 114.839 36.9289L113.071 35.1611C112.583 34.673 111.791 34.673 111.303 35.1611L110.8 35.664C110.422 36.0423 109.847 36.1205 109.353 35.9154C108.859 35.7103 108.5 35.2457 108.5 34.711V34C108.5 33.3096 107.94 32.75 107.25 32.75H104.75ZM106 46.5C107.381 46.5 108.5 45.3807 108.5 44C108.5 42.6193 107.381 41.5 106 41.5C104.619 41.5 103.5 42.6193 103.5 44C103.5 45.3807 104.619 46.5 106 46.5Z" fill="#6D31ED"/>
<path d="M104.75 32.75H107.25C107.94 32.75 108.5 33.3096 108.5 34V34.711C108.5 35.2457 108.859 35.7103 109.353 35.9154C109.847 36.1205 110.422 36.0423 110.8 35.664L111.303 35.1611C111.791 34.673 112.583 34.673 113.071 35.1611L114.839 36.9289C115.327 37.4171 115.327 38.2085 114.839 38.6967L114.336 39.1995C113.958 39.5778 113.879 40.1531 114.085 40.6472C114.29 41.1411 114.754 41.5 115.289 41.5L116 41.5C116.69 41.5 117.25 42.0596 117.25 42.75V45.25C117.25 45.9404 116.69 46.5 116 46.5H115.289C114.754 46.5 114.29 46.8589 114.085 47.3528C113.88 47.8469 113.958 48.4222 114.336 48.8004L114.839 49.3033C115.327 49.7914 115.327 50.5829 114.839 51.071L113.071 52.8388C112.583 53.327 111.791 53.327 111.303 52.8388L110.8 52.336C110.422 51.9577 109.847 51.8795 109.353 52.0846C108.859 52.2897 108.5 52.7543 108.5 53.289V54C108.5 54.6904 107.94 55.25 107.25 55.25H104.75C104.06 55.25 103.5 54.6904 103.5 54V53.2891C103.5 52.7543 103.141 52.2897 102.647 52.0846C102.153 51.8795 101.578 51.9577 101.199 52.336L100.697 52.8388C100.208 53.327 99.417 53.327 98.9289 52.8388L97.1611 51.071C96.673 50.5829 96.673 49.7914 97.1611 49.3033L97.664 48.8004C98.0423 48.4221 98.1205 47.8468 97.9154 47.3528C97.7103 46.8589 97.2457 46.5 96.711 46.5H96C95.3096 46.5 94.75 45.9404 94.75 45.25V42.75C94.75 42.0596 95.3096 41.5 96 41.5L96.711 41.5C97.2457 41.5 97.7103 41.1411 97.9154 40.6472C98.1205 40.1531 98.0423 39.5779 97.664 39.1996L97.1611 38.6967C96.673 38.2085 96.673 37.4171 97.1611 36.9289L98.9289 35.1611C99.4171 34.673 100.209 34.673 100.697 35.1611L101.2 35.664C101.578 36.0423 102.153 36.1205 102.647 35.9154C103.141 35.7103 103.5 35.2457 103.5 34.711V34C103.5 33.3096 104.06 32.75 104.75 32.75Z" stroke="#6D31ED" stroke-width="1.5"/>
<path d="M108.5 44C108.5 45.3807 107.381 46.5 106 46.5C104.619 46.5 103.5 45.3807 103.5 44C103.5 42.6193 104.619 41.5 106 41.5C107.381 41.5 108.5 42.6193 108.5 44Z" stroke="#6D31ED" stroke-width="1.5"/>
</svg>
