<svg width="60" height="60" viewBox="0 0 60 60" fill="none" xmlns="http://www.w3.org/2000/svg">
<path d="M54.9999 55H4.99994" stroke="#012167" stroke-width="3.75" stroke-linecap="round"/>
<path opacity="0.5" d="M50 55V27.5" stroke="#012167" stroke-width="3.75" stroke-linecap="round"/>
<path opacity="0.5" d="M10.0001 55V27.5" stroke="#012167" stroke-width="3.75" stroke-linecap="round"/>
<path d="M41.3195 5H18.6804C15.6733 5 14.1698 5 12.9616 5.74675C11.7533 6.4935 11.0809 7.83828 9.73612 10.5279L6.22707 19.3982C5.41634 21.4476 4.70702 23.8631 6.07172 25.5938C6.98727 26.7548 8.40647 27.5 9.99982 27.5C12.7612 27.5 14.9998 25.2615 14.9998 22.5C14.9998 25.2615 17.2384 27.5 19.9998 27.5C22.7612 27.5 24.9998 25.2615 24.9998 22.5C24.9998 25.2615 27.2383 27.5 29.9998 27.5C32.7613 27.5 34.9998 25.2615 34.9998 22.5C34.9998 25.2615 37.2383 27.5 39.9998 27.5C42.7613 27.5 44.9998 25.2615 44.9998 22.5C44.9998 25.2615 47.2383 27.5 49.9998 27.5C51.5933 27.5 53.0125 26.7548 53.928 25.5938C55.2928 23.8631 54.5835 21.4476 53.7728 19.3982L50.2638 10.5279C48.919 7.83828 48.2465 6.4935 47.0383 5.74675C45.83 5 44.3265 5 41.3195 5Z" stroke="#012167" stroke-width="3.75" stroke-linejoin="round"/>
<path opacity="0.5" d="M23.7499 53.75V46.25C23.7499 43.9135 23.7499 42.7453 24.2523 41.875C24.5815 41.305 25.0549 40.8315 25.6249 40.5025C26.4952 40 27.6634 40 29.9999 40C32.3364 40 33.5047 40 34.3749 40.5025C34.9449 40.8315 35.4184 41.305 35.7474 41.875C36.2499 42.7453 36.2499 43.9135 36.2499 46.25V53.75" stroke="#012167" stroke-width="3.75" stroke-linecap="round"/>
</svg>
