<svg width="60" height="60" viewBox="0 0 60 60" fill="none" xmlns="http://www.w3.org/2000/svg">
<path d="M54.9999 54.9999H4.99994" stroke="white" stroke-width="3.75" stroke-linecap="round"/>
<path opacity="0.5" d="M50 55.0001V27.5001" stroke="white" stroke-width="3.75" stroke-linecap="round"/>
<path opacity="0.5" d="M10.0001 55.0001V27.5001" stroke="white" stroke-width="3.75" stroke-linecap="round"/>
<path d="M41.3195 5.00012H18.6804C15.6733 5.00012 14.1698 5.00012 12.9616 5.74687C11.7533 6.49362 11.0809 7.8384 9.73612 10.528L6.22707 19.3983C5.41634 21.4477 4.70702 23.8632 6.07172 25.5939C6.98727 26.7549 8.40647 27.5001 9.99982 27.5001C12.7612 27.5001 14.9998 25.2616 14.9998 22.5001C14.9998 25.2616 17.2384 27.5001 19.9998 27.5001C22.7612 27.5001 24.9998 25.2616 24.9998 22.5001C24.9998 25.2616 27.2383 27.5001 29.9998 27.5001C32.7613 27.5001 34.9998 25.2616 34.9998 22.5001C34.9998 25.2616 37.2383 27.5001 39.9998 27.5001C42.7613 27.5001 44.9998 25.2616 44.9998 22.5001C44.9998 25.2616 47.2383 27.5001 49.9998 27.5001C51.5933 27.5001 53.0125 26.7549 53.928 25.5939C55.2928 23.8632 54.5835 21.4477 53.7728 19.3983L50.2638 10.528C48.919 7.8384 48.2465 6.49362 47.0383 5.74687C45.83 5.00012 44.3265 5.00012 41.3195 5.00012Z" stroke="white" stroke-width="3.75" stroke-linejoin="round"/>
<path opacity="0.5" d="M23.7499 53.7499V46.2499C23.7499 43.9134 23.7499 42.7451 24.2523 41.8749C24.5815 41.3049 25.0549 40.8314 25.6249 40.5024C26.4952 39.9999 27.6634 39.9999 29.9999 39.9999C32.3364 39.9999 33.5047 39.9999 34.3749 40.5024C34.9449 40.8314 35.4184 41.3049 35.7474 41.8749C36.2499 42.7451 36.2499 43.9134 36.2499 46.2499V53.7499" stroke="white" stroke-width="3.75" stroke-linecap="round"/>
</svg>
