<svg width="20" height="20" viewBox="0 0 20 20" fill="none" xmlns="http://www.w3.org/2000/svg">
<path d="M5.55533 18.9732H14.4446C16.1775 18.9732 17.0396 18.0943 17.0396 16.3532V8.75287H10.9793C9.90783 8.75287 9.40568 8.24215 9.40568 7.17072V1.02679H5.55533C3.83104 1.02679 2.96033 1.91394 2.96033 3.65537V16.3532C2.96033 18.1025 3.83104 18.9732 5.55533 18.9732ZM11.0046 7.60608H16.9475C16.8889 7.26287 16.646 6.92787 16.2528 6.51787L11.6321 1.82215C11.2471 1.42037 10.8957 1.17751 10.5439 1.11858V7.15429C10.5439 7.45537 10.7032 7.60608 11.0046 7.60608ZM6.77747 12.3775C6.43426 12.3775 6.1914 12.1347 6.1914 11.8082C6.1914 11.4814 6.43426 11.2389 6.77711 11.2389H13.2307C13.5657 11.2389 13.8253 11.4818 13.8253 11.8079C13.8253 12.1347 13.5657 12.3772 13.231 12.3772L6.77747 12.3775ZM6.77747 15.5664C6.43426 15.5664 6.1914 15.3236 6.1914 14.9972C6.1914 14.6707 6.43426 14.4279 6.77711 14.4279H13.2307C13.5657 14.4279 13.8253 14.6707 13.8253 14.9972C13.8253 15.3236 13.5657 15.5664 13.231 15.5664H6.77747Z" fill="white"/>
</svg>
