<svg width="11" height="19" viewBox="0 0 11 19" fill="none" xmlns="http://www.w3.org/2000/svg">
<path d="M7.13703 17.9406C7.25388 17.8237 7.31953 17.6653 7.31952 17.5L7.31944 11.748H9.08017C9.39343 11.748 9.65799 11.5154 9.69811 11.2047L10.0557 8.43502C10.0787 8.25733 10.024 8.07837 9.90575 7.94382C9.78745 7.80927 9.61697 7.73216 9.43781 7.73216H7.31945L7.31952 5.85762V5.8576C7.31952 5.48307 7.37915 5.34211 7.42786 5.28422C7.45628 5.25045 7.57635 5.13273 8.06899 5.13273H8.06924L9.53465 5.13213C9.87866 5.13199 10.1575 4.85307 10.1575 4.50906V2.03178C10.1575 1.71871 9.92515 1.45425 9.61469 1.4139C9.33183 1.37715 8.43493 1.30027 7.39859 1.30027C6.21503 1.30027 5.15394 1.6636 4.38695 2.42161C3.61803 3.18153 3.21387 4.26971 3.21386 5.58327C3.21386 5.58328 3.21386 5.58328 3.21386 5.58329L3.21379 7.73216H1.4458C1.10169 7.73216 0.822733 8.01111 0.822733 8.35522V11.1249C0.822733 11.469 1.10169 11.748 1.4458 11.748H3.21378L3.21386 17.5C3.21387 17.8441 3.49282 18.1231 3.83693 18.1231H6.69646C6.8617 18.1231 7.02019 18.0574 7.13703 17.9406Z" stroke="#4867A9" stroke-width="1.24613" stroke-linejoin="round"/>
</svg>
