<svg width="18" height="17" viewBox="0 0 18 17" fill="none" xmlns="http://www.w3.org/2000/svg">
<path fill-rule="evenodd" clip-rule="evenodd" d="M9.00721 0.92334C13.5313 0.92334 17.1754 4.26053 17.1754 8.33172C17.1754 12.4029 13.5313 15.7401 9.00721 15.7401C7.94496 15.7401 6.92982 15.5555 5.99978 15.2211L3.563 16.4399C3.47009 16.4863 3.36627 16.5065 3.26274 16.4982C3.15922 16.4899 3.05993 16.4535 2.9756 16.3929C2.89127 16.3322 2.82512 16.2497 2.78428 16.1542C2.74344 16.0587 2.72948 15.9539 2.74389 15.851L3.08278 13.431C1.68924 12.0997 0.838989 10.3035 0.838989 8.33172C0.838989 4.26053 4.48315 0.92334 9.00721 0.92334ZM9.00721 2.06309C5.14345 2.06309 1.97874 4.85472 1.97874 8.33172C1.97874 10.0771 2.78113 11.653 4.06525 12.7866C4.13602 12.8488 4.19023 12.9276 4.22299 13.016C4.25575 13.1043 4.26604 13.1994 4.25292 13.2927L4.0227 14.9354L5.71333 14.0905C5.78483 14.0548 5.86304 14.0345 5.94289 14.0309C6.02275 14.0274 6.10245 14.0407 6.17683 14.07C7.0438 14.4112 8.00119 14.6004 9.00721 14.6004C12.871 14.6004 16.0357 11.8087 16.0357 8.33172C16.0357 4.85472 12.871 2.06309 9.00721 2.06309Z" fill="#4867A9" stroke="#4867A9" stroke-width="0.155767"/>
<path fill-rule="evenodd" clip-rule="evenodd" d="M5.50122 10.7419C5.45872 10.7746 5.40604 10.7913 5.35245 10.7891C5.29886 10.7868 5.24779 10.7657 5.20821 10.7295C5.16864 10.6933 5.14311 10.6443 5.13611 10.5911C5.1291 10.5379 5.14108 10.484 5.16993 10.4387L7.44943 6.89183C7.50426 6.80732 7.57529 6.73451 7.65841 6.6776C7.74153 6.62069 7.8351 6.5808 7.93372 6.56024C8.03234 6.53969 8.13405 6.53886 8.23299 6.55783C8.33193 6.57679 8.42613 6.61516 8.51016 6.67072L9.76161 7.50502C9.8777 7.58237 10.0129 7.62626 10.1522 7.63189C10.2916 7.63752 10.4299 7.60467 10.5518 7.53693L12.744 6.31892C12.7887 6.29453 12.8403 6.28578 12.8906 6.29405C12.9408 6.30233 12.9869 6.32716 13.0215 6.3646C13.056 6.40204 13.0771 6.44995 13.0813 6.50072C13.0856 6.5515 13.0727 6.60224 13.0448 6.64488L10.9204 9.83087C10.8136 9.99104 10.6501 10.1047 10.4628 10.149C10.2756 10.1933 10.0784 10.1649 9.91129 10.0695L8.3088 9.15386C8.17809 9.07919 8.02813 9.04503 7.87797 9.05572C7.72781 9.0664 7.58421 9.12145 7.46539 9.21388L5.50122 10.7419Z" fill="#4867A9" stroke="#4867A9" stroke-width="0.155767"/>
</svg>
