<svg width="60" height="60" viewBox="0 0 60 60" fill="none" xmlns="http://www.w3.org/2000/svg">
<path d="M52.5 55H7.5" stroke="#012167" stroke-width="3.8125" stroke-linecap="round"/>
<path opacity="0.5" d="M47.5001 55V37.5" stroke="#012167" stroke-width="3.8125" stroke-linecap="round"/>
<path opacity="0.5" d="M12.4999 55V37.5" stroke="#012167" stroke-width="3.8125" stroke-linecap="round"/>
<path d="M41.3194 5H18.6803C15.6732 5 14.1697 5 12.9614 5.74675C11.7532 6.4935 11.0808 7.83828 9.736 10.5279L6.22695 19.3982C5.41622 21.4476 4.7069 23.8631 6.0716 25.5938C6.98715 26.7548 8.40635 27.5 9.9997 27.5C12.7611 27.5 14.9997 25.2615 14.9997 22.5C14.9997 25.2615 17.2383 27.5 19.9997 27.5C22.7611 27.5 24.9997 25.2615 24.9997 22.5C24.9997 25.2615 27.2382 27.5 29.9997 27.5C32.7612 27.5 34.9997 25.2615 34.9997 22.5C34.9997 25.2615 37.2382 27.5 39.9997 27.5C42.7612 27.5 44.9997 25.2615 44.9997 22.5C44.9997 25.2615 47.2382 27.5 49.9997 27.5C51.5932 27.5 53.0124 26.7548 53.9279 25.5938C55.2927 23.8631 54.5834 21.4476 53.7727 19.3982L50.2637 10.5279C48.9189 7.83828 48.2464 6.4935 47.0382 5.74675C45.8299 5 44.3264 5 41.3194 5Z" stroke="#012167" stroke-width="3.8125" stroke-linejoin="round"/>
</svg>
