<svg width="60" height="60" viewBox="0 0 60 60" fill="none" xmlns="http://www.w3.org/2000/svg">
<path d="M52.5 55.0001H7.5" stroke="white" stroke-width="3.8125" stroke-linecap="round"/>
<path opacity="0.5" d="M47.5001 55V37.5" stroke="white" stroke-width="3.8125" stroke-linecap="round"/>
<path opacity="0.5" d="M12.4999 55V37.5" stroke="white" stroke-width="3.8125" stroke-linecap="round"/>
<path d="M41.3194 4.99988H18.6803C15.6732 4.99988 14.1697 4.99988 12.9614 5.74663C11.7532 6.49338 11.0808 7.83815 9.736 10.5277L6.22695 19.3981C5.41622 21.4475 4.7069 23.863 6.0716 25.5936C6.98715 26.7546 8.40635 27.4999 9.9997 27.4999C12.7611 27.4999 14.9997 25.2614 14.9997 22.4999C14.9997 25.2614 17.2383 27.4999 19.9997 27.4999C22.7611 27.4999 24.9997 25.2614 24.9997 22.4999C24.9997 25.2614 27.2382 27.4999 29.9997 27.4999C32.7612 27.4999 34.9997 25.2614 34.9997 22.4999C34.9997 25.2614 37.2382 27.4999 39.9997 27.4999C42.7612 27.4999 44.9997 25.2614 44.9997 22.4999C44.9997 25.2614 47.2382 27.4999 49.9997 27.4999C51.5932 27.4999 53.0124 26.7546 53.9279 25.5936C55.2927 23.863 54.5834 21.4475 53.7727 19.3981L50.2637 10.5277C48.9189 7.83815 48.2464 6.49338 47.0382 5.74663C45.8299 4.99988 44.3264 4.99988 41.3194 4.99988Z" stroke="white" stroke-width="3.8125" stroke-linejoin="round"/>
</svg>
