<svg width="104" height="104" viewBox="0 0 104 104" fill="none" xmlns="http://www.w3.org/2000/svg">
<circle cx="52" cy="52" r="50" stroke="black" stroke-width="4"/>
<path d="M58.253 71.1984C56.0847 73.0461 53.8531 74.9477 51.5 76.9933C49.147 74.948 46.9153 73.0462 44.7466 71.1982C31.536 59.9408 22.8086 52.5038 22.8086 42.7275C22.8086 38.6866 24.1549 34.9334 26.5997 32.1593C29.0725 29.3538 32.5051 27.8086 36.2656 27.8086C41.4871 27.8086 44.8624 31.0254 46.7743 33.7239C48.4893 36.1441 49.3842 38.5839 49.6894 39.5204C49.9447 40.3044 50.6756 40.8349 51.5 40.8349C52.3244 40.8349 53.0553 40.3044 53.3106 39.5204C53.6158 38.5839 54.5107 36.1441 56.2257 33.7238C58.1376 31.0254 61.5129 27.8086 66.7344 27.8086C70.4949 27.8086 73.9275 29.3538 76.4002 32.1593C78.8451 34.9334 80.1914 38.6866 80.1914 42.7275C80.1914 52.5038 71.464 59.9408 58.253 71.1984Z" fill="black"/>
<path fill-rule="evenodd" clip-rule="evenodd" d="M79.2575 29.6411C76.0516 26.0034 71.604 24 66.7344 24C59.8855 24 55.5494 28.0905 53.118 31.522C52.4872 32.4125 51.9506 33.3053 51.5 34.1455C51.0494 33.3053 50.5129 32.4125 49.882 31.522C47.4506 28.0905 43.1145 24 36.2656 24C31.396 24 26.9484 26.0035 23.7423 29.6412C20.6843 33.1113 19 37.7588 19 42.7275C19 48.1361 21.1116 53.1666 25.6454 58.5586C29.6973 63.3777 35.5266 68.3451 42.2769 74.0973L42.2781 74.0983C44.793 76.2414 47.3938 78.4577 50.1625 80.8802L50.2457 80.9531C50.6047 81.2674 51.0524 81.4245 51.5 81.4245C51.9476 81.4245 52.3953 81.2673 52.7543 80.9531L52.8374 80.8802C55.5983 78.4647 58.1921 76.2543 60.7006 74.1165L60.7235 74.097C67.4734 68.3453 73.3027 63.3778 77.3546 58.5586C81.8884 53.1665 84 48.1361 84 42.7275C84 37.7588 82.3157 33.1113 79.2575 29.6411ZM51.5 76.9933C53.8531 74.9477 56.0847 73.0461 58.253 71.1984C71.464 59.9408 80.1914 52.5038 80.1914 42.7275C80.1914 38.6866 78.8451 34.9334 76.4002 32.1593C73.9275 29.3538 70.4949 27.8086 66.7344 27.8086C61.5129 27.8086 58.1376 31.0254 56.2257 33.7238C54.5107 36.1441 53.6158 38.5839 53.3106 39.5204C53.0553 40.3044 52.3244 40.8349 51.5 40.8349C50.6756 40.8349 49.9447 40.3044 49.6894 39.5204C49.3842 38.5839 48.4893 36.1441 46.7743 33.7239C44.8624 31.0254 41.4871 27.8086 36.2656 27.8086C32.5051 27.8086 29.0725 29.3538 26.5997 32.1593C24.1549 34.9334 22.8086 38.6866 22.8086 42.7275C22.8086 52.5038 31.536 59.9408 44.7466 71.1982C46.9153 73.0462 49.147 74.948 51.5 76.9933Z" fill="black"/>
<path d="M58.8872 72.9638C56.5152 74.985 54.0741 77.0653 51.5 79.303C48.9261 77.0655 46.4848 74.9852 44.1123 72.9636C29.661 60.649 20.1139 52.5135 20.1139 41.819C20.1139 37.3986 21.5867 33.2928 24.2611 30.2582C26.9661 27.1892 30.7212 25.499 34.8348 25.499C40.5467 25.499 44.239 29.0178 46.3305 31.9698C48.2065 34.6173 49.1855 37.2862 49.5193 38.3107C49.7986 39.1683 50.5981 39.7486 51.5 39.7486C52.4019 39.7486 53.2014 39.1683 53.4807 38.3107C53.8145 37.2862 54.7935 34.6173 56.6695 31.9696C58.761 29.0178 62.4533 25.499 68.1652 25.499C72.2788 25.499 76.0339 27.1892 78.7388 30.2582C81.4133 33.2928 82.8861 37.3986 82.8861 41.819C82.8861 52.5135 73.339 60.649 58.8872 72.9638Z" fill="black"/>
</svg>
