<svg width="370" height="370" viewBox="0 0 370 370" fill="none" xmlns="http://www.w3.org/2000/svg">
<g clip-path="url(#clip0_1_67)">
<path d="M185 365C284.411 365 365 284.411 365 185C365 85.5887 284.411 5 185 5C85.5887 5 5 85.5887 5 185C5 284.411 85.5887 365 185 365Z" fill="#FBC5C8" fill-opacity="0.13" stroke="black" stroke-width="10"/>
<path d="M185 281C182.833 281 181 280.254 179.5 278.762L101.5 203.904C100.667 203.24 99.5208 202.163 98.0625 200.671C96.6042 199.178 94.2917 196.463 91.125 192.526C87.9583 188.588 85.125 184.547 82.625 180.402C80.125 176.257 77.8958 171.241 75.9375 165.355C73.9792 159.47 73 153.75 73 148.195C73 129.957 78.2917 115.699 88.875 105.419C99.4583 95.1398 114.083 90 132.75 90C137.917 90 143.188 90.8912 148.562 92.6735C153.938 94.4558 158.938 96.8599 163.562 99.8857C168.188 102.912 172.167 105.751 175.5 108.404C178.833 111.056 182 113.875 185 116.859C188 113.875 191.167 111.056 194.5 108.404C197.833 105.751 201.812 102.912 206.438 99.8857C211.062 96.8599 216.062 94.4558 221.438 92.6735C226.812 90.8912 232.083 90 237.25 90C255.917 90 270.542 95.1398 281.125 105.419C291.708 115.699 297 129.957 297 148.195C297 166.516 287.458 185.168 268.375 204.152L190.5 278.762C189 280.254 187.167 281 185 281Z" fill="black"/>
</g>
<defs>
<clipPath id="clip0_1_67">
<rect width="370" height="370" fill="white"/>
</clipPath>
</defs>
</svg>
