<svg width="370" height="370" viewBox="0 0 370 370" fill="none" xmlns="http://www.w3.org/2000/svg">
<circle cx="185" cy="185" r="180" stroke="black" stroke-width="10"/>
<path d="M235 95C214.35 95 196.27 103.88 185 118.89C173.73 103.88 155.65 95 135 95C118.562 95.0185 102.803 101.557 91.1798 113.18C79.5566 124.803 73.0185 140.562 73 157C73 227 176.79 283.66 181.21 286C182.375 286.627 183.677 286.955 185 286.955C186.323 286.955 187.625 286.627 188.79 286C193.21 283.66 297 227 297 157C296.981 140.562 290.443 124.803 278.82 113.18C267.197 101.557 251.438 95.0185 235 95ZM185 269.8C166.74 259.16 89 210.69 89 157C89.0159 144.805 93.8674 133.114 102.491 124.491C111.114 115.867 122.805 111.016 135 111C154.45 111 170.78 121.36 177.6 138C178.203 139.467 179.228 140.722 180.546 141.605C181.863 142.489 183.414 142.96 185 142.96C186.586 142.96 188.137 142.489 189.454 141.605C190.772 140.722 191.797 139.467 192.4 138C199.22 121.33 215.55 111 235 111C247.195 111.016 258.886 115.867 267.509 124.491C276.133 133.114 280.984 144.805 281 157C281 210.61 203.24 259.15 185 269.8Z" fill="black"/>
</svg>
