<svg width="209" height="149" viewBox="0 0 209 149" fill="none" xmlns="http://www.w3.org/2000/svg">
<g opacity="0.2" clip-path="url(#clip0_273_740)">
<path d="M87.4424 179.375L82.235 165.972C63.68 118.486 51.4527 87.0915 63.7693 62.3399C73.8643 42.0528 97.626 34.1364 117.847 44.1987C129.271 49.8833 137.589 60.6571 140.596 72.5562C151.902 67.7792 165.512 67.9171 176.936 73.6017C197.158 83.664 205.172 107.393 195.077 127.68C182.761 152.431 150.343 161.611 101.275 175.446L87.4424 179.375Z" fill="#7F50A7"/>
</g>
<g opacity="0.2" clip-path="url(#clip1_273_740)">
<path d="M102.534 149.354L99.8816 142.528C90.4317 118.344 84.2044 102.355 90.4772 89.7492C95.6185 79.4172 107.72 75.3854 118.019 80.51C123.837 83.4051 128.073 88.8922 129.605 94.9523C135.362 92.5194 142.294 92.5896 148.112 95.4847C158.411 100.609 162.493 112.694 157.351 123.026C151.079 135.632 134.569 140.307 109.578 147.353L102.534 149.354Z" fill="#7F50A7"/>
</g>
<defs>
<clipPath id="clip0_273_740">
<rect width="176" height="176" fill="white" transform="translate(78.4079) rotate(26.4553)"/>
</clipPath>
<clipPath id="clip1_273_740">
<rect width="89.6354" height="89.6354" fill="white" transform="translate(97.9325 58) rotate(26.4553)"/>
</clipPath>
</defs>
</svg>
