<svg width="16" height="17" viewBox="0 0 16 17" fill="none" xmlns="http://www.w3.org/2000/svg">
<path d="M7.87934 4.71167C7.35447 4.71158 6.83472 4.8149 6.34979 5.01572C5.86485 5.21654 5.42423 5.51093 5.05309 5.88207C4.68195 6.25321 4.38756 6.69383 4.18674 7.17877C3.98592 7.6637 3.88261 8.18345 3.88269 8.70832C3.88261 9.23319 3.98592 9.75294 4.18674 10.2379C4.38756 10.7228 4.68195 11.1634 5.05309 11.5346C5.42423 11.9057 5.86485 12.2001 6.34979 12.4009C6.83472 12.6017 7.35447 12.7051 7.87934 12.705C8.40421 12.7051 8.92396 12.6017 9.40889 12.4009C9.89382 12.2001 10.3344 11.9057 10.7056 11.5346C11.0767 11.1634 11.3711 10.7228 11.5719 10.2379C11.7728 9.75294 11.8761 9.23319 11.876 8.70832C11.8761 8.18345 11.7728 7.6637 11.5719 7.17877C11.3711 6.69383 11.0767 6.25321 10.7056 5.88207C10.3344 5.51093 9.89382 5.21654 9.40889 5.01572C8.92396 4.8149 8.40421 4.71158 7.87934 4.71167ZM7.87934 11.3024C7.36645 11.3023 6.86512 11.1501 6.43873 10.8651C6.01233 10.5801 5.68002 10.175 5.48381 9.70115C5.28759 9.22728 5.23629 8.70587 5.33638 8.20285C5.43647 7.69982 5.68346 7.23777 6.04612 6.8751C6.40879 6.51244 6.87084 6.26545 7.37387 6.16536C7.87689 6.06527 8.3983 6.11657 8.87217 6.31279C9.34603 6.509 9.75109 6.84131 10.0361 7.26771C10.3211 7.6941 10.4733 8.19543 10.4735 8.70832C10.4736 9.04903 10.4066 9.38644 10.2763 9.70125C10.146 10.0161 9.95496 10.3021 9.71404 10.543C9.47312 10.7839 9.18708 10.975 8.87227 11.1053C8.55746 11.2356 8.22005 11.3026 7.87934 11.3024Z" fill="#4867A9"/>
<path d="M11.0882 0.972267C9.65516 0.905418 6.10569 0.908663 4.67136 0.972267C3.41097 1.03133 2.2992 1.33572 1.40291 2.23201C-0.0950234 3.72994 0.0964367 5.74838 0.0964367 8.70855C0.0964367 11.7382 -0.0723078 13.7099 1.40291 15.1851C2.90668 16.6882 4.95433 16.4916 7.87945 16.4916C10.8805 16.4916 11.9163 16.4935 12.9775 16.0827C14.4202 15.5226 15.5093 14.233 15.6157 11.9166C15.6832 10.483 15.6793 6.93414 15.6157 5.49981C15.4872 2.7655 14.0198 1.10726 11.0882 0.972267ZM13.3565 14.194C12.3745 15.176 11.0123 15.0884 7.86063 15.0884C4.61554 15.0884 3.31426 15.1364 2.36475 14.1843C1.27116 13.0959 1.46911 11.3481 1.46911 8.69817C1.46911 5.11235 1.10112 2.52991 4.69992 2.34559C5.52676 2.31638 5.77014 2.30665 7.85154 2.30665L7.88075 2.32612C11.3394 2.32612 14.0529 1.96397 14.2158 5.56212C14.2528 6.38312 14.2612 6.62975 14.2612 8.7079C14.2606 11.9153 14.3216 13.2244 13.3565 14.194Z" fill="#4867A9"/>
<path d="M12.0345 5.48823C12.5503 5.48823 12.9685 5.0701 12.9685 4.5543C12.9685 4.0385 12.5503 3.62036 12.0345 3.62036C11.5187 3.62036 11.1006 4.0385 11.1006 4.5543C11.1006 5.0701 11.5187 5.48823 12.0345 5.48823Z" fill="#4867A9"/>
</svg>
