<svg width="150" height="150" viewBox="0 0 150 150" fill="none" xmlns="http://www.w3.org/2000/svg">
<rect width="150" height="150" rx="20" fill="#F4F4F4"/>
<path d="M95.8358 96.5833C97.7672 96.5827 99.4339 95.8986 100.792 94.5434L95.8358 96.5833ZM95.8358 96.5833C95.835 96.5833 95.8342 96.5833 95.8333 96.5833V95.8333L95.8382 96.5833C95.8374 96.5833 95.8366 96.5833 95.8358 96.5833ZM95.8342 111.75H95.8333C91.3873 111.75 87.6417 110.21 84.5514 107.12C81.4579 104.024 79.9167 100.276 79.9167 95.8333C79.9167 91.3903 81.4578 87.6445 84.5512 84.5511C87.6445 81.4578 91.3903 79.9166 95.8333 79.9166C100.276 79.9166 104.024 81.4578 107.12 84.5514C110.216 87.6445 111.755 91.3899 111.75 95.8324C111.745 100.276 110.204 104.024 107.119 107.121C104.035 110.215 100.288 111.755 95.8342 111.75ZM71.5721 104.463C72.4522 106.951 73.7156 109.266 75.3588 111.407L74.9764 111.547C66.8816 109.09 60.1402 104.15 54.7452 96.6897C49.3032 89.1641 46.5833 80.6921 46.5833 71.25V49.2371L75 38.6214L103.417 49.2371V71.2103C102.457 70.8949 101.41 70.6455 100.28 70.4599C98.7379 70.2067 97.2549 70.0804 95.8318 70.0833C88.7019 70.0837 82.6111 72.5948 77.603 77.603C72.5945 82.6115 70.0833 88.7027 70.0833 95.8333C70.0833 98.7805 70.5801 101.658 71.5721 104.463ZM102.174 107.519L102.175 107.519C104.053 106.483 105.611 105.082 106.844 103.322L107.304 102.664L106.617 102.25C104.977 101.26 103.255 100.512 101.452 100.007C99.6477 99.5016 97.7739 99.25 95.8333 99.25C93.8927 99.25 92.019 99.5016 90.2144 100.007C88.4111 100.512 86.6901 101.262 85.0528 102.254L84.3687 102.669L84.8268 103.325C86.0566 105.086 87.6157 106.487 89.4973 107.52C91.3927 108.567 93.5104 109.083 95.8333 109.083C98.1544 109.083 100.274 108.566 102.174 107.519Z" fill="#D9CDF2" stroke="#6D31ED" stroke-width="1.5"/>
<path d="M71.5721 104.463C72.4522 106.951 73.7156 109.266 75.3588 111.407L74.9764 111.547C66.8816 109.09 60.1402 104.15 54.7452 96.6897C49.3032 89.1641 46.5833 80.6921 46.5833 71.25V49.2371L75 38.6214L103.417 49.2371V71.2103C102.457 70.8949 101.41 70.6455 100.28 70.4599C98.7379 70.2067 97.2549 70.0804 95.8318 70.0833C88.7019 70.0837 82.6111 72.5948 77.603 77.603C72.5945 82.6115 70.0833 88.7027 70.0833 95.8333C70.0833 98.7805 70.5801 101.658 71.5721 104.463Z" fill="#D9CDF2" stroke="#6D31ED" stroke-width="1.5"/>
</svg>
