<svg width="150" height="150" viewBox="0 0 150 150" fill="none" xmlns="http://www.w3.org/2000/svg">
<g clip-path="url(#clip0_10_2)">
<path d="M130 0H20C8.9543 0 0 8.9543 0 20V130C0 141.046 8.9543 150 20 150H130C141.046 150 150 141.046 150 130V20C150 8.9543 141.046 0 130 0Z" fill="#F4F4F4"/>
<g clip-path="url(#clip1_10_2)">
<rect width="141" height="38" transform="translate(4 56)" fill="#F4F4F4"/>
<mask id="path-2-inside-1_10_2" fill="white">
<path d="M84.0662 63.5927C84.8155 63.5964 85.5368 63.3336 86.0766 62.8603C86.6142 62.389 86.926 61.7437 86.9444 61.0644C86.9355 60.3757 86.6294 59.7178 86.0921 59.2329C85.5526 58.7459 84.8259 58.4695 84.0662 58.4623C83.317 58.4781 82.6043 58.7596 82.0798 59.2468C81.5576 59.732 81.2665 60.3851 81.2697 61.0644C81.2761 61.7342 81.573 62.3746 82.0956 62.8462C82.6202 63.3197 83.3274 63.5875 84.0662 63.5927ZM103.624 66.0238H110.566V66.5218C110.181 66.5831 109.81 66.6993 109.465 66.866C108.83 67.1344 107.561 68.4355 106.587 70.6159C104.937 74.4044 103.203 78.8795 101.383 84.0082L100.705 85.9531C100.409 86.8321 100.155 87.4059 100.028 87.7521C99.9009 88.0983 99.7307 88.6312 99.4361 89.2807C99.2681 89.7694 99.0521 90.2432 98.7908 90.6967C98.4508 91.2704 97.8162 92.4471 97.3087 92.801C96.504 93.4137 95.3187 94.1021 93.8388 93.9874C90.9606 93.9874 88.8029 92.0426 88.7599 89.7418C88.7599 88.1721 89.8612 87.1395 91.5112 87.1395C92.6965 87.1395 93.7527 87.7229 93.7527 88.9365C93.7527 89.8176 92.7805 90.7355 92.7805 91.1946C92.7805 92.3808 93.542 92.9448 95.0241 92.9448C96.2072 92.9448 97.1753 92.2564 97.9002 90.8794C98.8748 89.3099 98.9585 87.5888 98.154 85.6749L92.0619 71.0979C90.6638 67.7316 89.6054 66.625 88.2952 66.5063V66.0081H97.9002V66.5059C96.7579 66.6208 96.1664 67.2334 96.1664 68.3418C96.1664 69.1451 96.504 70.3704 97.1386 71.9399L98.2809 74.77C99.5931 77.831 100.647 80.5091 101.202 82.1935C102.428 78.7121 103.569 75.6509 104.672 72.9727C105.477 70.983 105.857 69.5673 105.857 68.7251C105.857 67.2334 104.969 66.545 103.614 66.545L103.624 66.0238ZM36.8008 84.6577C35.5748 84.4633 34.5164 83.4714 34.5164 81.367V68.6835V56L27.5337 57.3771V57.9139C28.7189 57.799 29.8998 58.7539 29.8998 60.7825V81.367C29.8998 83.3567 28.7146 84.5042 27.5337 84.6577C27.4227 84.6754 27.3104 84.6878 27.198 84.6946C26.5937 84.7322 25.9883 84.6355 25.4342 84.4127C24.4962 84.0431 23.7133 83.3839 23.0505 82.3998L19.824 77.732C19.1435 76.7475 18.132 75.9892 16.94 75.5702C15.7452 75.1495 14.4335 75.0892 13.1982 75.3981L16.838 71.7634C19.5872 69.0095 22.1278 67.2493 24.5392 66.522V66.0236H16.5327V66.5216C18.6062 67.2489 18.4793 68.8555 16.1025 71.3838L10.9828 76.7767V56L4 57.3771V57.9139C5.18527 57.9139 6.36618 58.9834 6.36618 60.8583V81.367C6.36618 83.6251 5.2241 84.5042 4 84.6577V85.1557H13.2757V84.6577C11.7528 84.4633 10.9913 83.3956 10.9913 81.367V77.5802L12.9789 75.5908L17.7932 82.744C18.9356 84.4671 19.9939 85.1557 21.6869 85.1557H37.799V84.7667C37.799 84.7667 37.3386 84.7375 36.8008 84.6577ZM56.0239 82.2383V73.6808C55.9312 68.0855 53.3369 65.5378 47.3955 65.5378C45.4986 65.5244 43.6514 66.0899 42.1489 67.1439C40.5828 68.2157 39.8213 69.441 39.8213 70.8569C39.8213 72.234 40.6668 73.2666 42.0627 73.2666C43.545 73.2666 44.6034 72.5022 44.6034 71.4307C44.6034 70.6274 44.0095 69.517 44.0095 68.7525C44.0095 67.3737 45.154 66.1873 47.1416 66.1873C49.6823 66.1873 51.5 67.9106 51.5 71.736V74.031L49.3853 74.4899C48.2839 74.6843 47.3547 74.8789 46.6339 75.0734C45.9134 75.2678 44.9842 75.5324 43.8826 75.9135C41.6819 76.68 40.4989 77.4073 39.4815 78.7843C38.9834 79.4499 38.718 80.2369 38.72 81.0422C38.72 84.2163 41.1743 85.6712 44.6034 85.6712C47.3115 85.6712 50.1963 84.3699 51.5 81.9213C51.5187 82.6937 51.7233 83.453 52.1002 84.1463C53.5349 86.7718 58.2869 85.2198 58.2869 85.2198V84.722C56.2066 85.0157 56.0346 82.779 56.0239 82.2383ZM51.5063 79.5894C51.5063 80.8516 50.9986 81.8844 49.9835 82.6117C49.011 83.3392 47.9956 83.7223 46.9373 83.7223C44.8635 83.7223 43.5084 82.497 43.5084 80.2389C43.5084 79.1694 44.1537 78.1734 44.6937 77.5999C45.1216 77.2036 45.6234 76.8796 46.1757 76.6428C46.8943 76.2986 47.2513 76.1217 47.7418 75.9155L49.6779 75.266C50.6501 74.9218 51.2418 74.7311 51.4956 74.6165L51.5063 79.5894ZM145 66.0238H128.542V56H145L141.545 61.012L145 66.0238ZM111.545 82.7206C110.533 81.779 109.734 80.6646 109.195 79.4415C108.657 78.2183 108.389 76.9104 108.406 75.5928C108.384 74.2813 108.65 72.979 109.189 71.7625C109.729 70.5439 110.53 69.4354 111.545 68.5016C113.621 66.5101 116.164 65.5124 119.132 65.5124C122.056 65.5124 124.601 66.5101 126.676 68.5016C127.706 69.4279 128.518 70.5343 129.066 71.7541C129.612 72.9717 129.881 74.2777 129.856 75.5928C129.877 76.9128 129.607 78.2233 129.061 79.4464C128.514 80.6717 127.703 81.785 126.676 82.7206C124.601 84.6655 122.056 85.6712 119.132 85.6712C116.164 85.6712 113.621 84.6752 111.545 82.7206ZM122.946 68.8206C122.109 67.3406 121.01 66.4732 119.719 66.2397C117.102 65.7633 114.787 68.1962 113.924 72.0647C113.556 73.7999 113.467 75.5747 113.66 77.3332C113.849 79.0933 114.39 80.807 115.256 82.3901C116.095 83.8721 117.192 84.7375 118.483 84.9708C121.101 85.4474 123.482 82.9113 124.351 79.0039C125.072 75.7386 124.706 71.7614 122.936 68.8186L122.946 68.8206Z"/>
</mask>
<path d="M84.0662 63.5927C84.8155 63.5964 85.5368 63.3336 86.0766 62.8603C86.6142 62.389 86.926 61.7437 86.9444 61.0644C86.9355 60.3757 86.6294 59.7178 86.0921 59.2329C85.5526 58.7459 84.8259 58.4695 84.0662 58.4623C83.317 58.4781 82.6043 58.7596 82.0798 59.2468C81.5576 59.732 81.2665 60.3851 81.2697 61.0644C81.2761 61.7342 81.573 62.3746 82.0956 62.8462C82.6202 63.3197 83.3274 63.5875 84.0662 63.5927ZM103.624 66.0238H110.566V66.5218C110.181 66.5831 109.81 66.6993 109.465 66.866C108.83 67.1344 107.561 68.4355 106.587 70.6159C104.937 74.4044 103.203 78.8795 101.383 84.0082L100.705 85.9531C100.409 86.8321 100.155 87.4059 100.028 87.7521C99.9009 88.0983 99.7307 88.6312 99.4361 89.2807C99.2681 89.7694 99.0521 90.2432 98.7908 90.6967C98.4508 91.2704 97.8162 92.4471 97.3087 92.801C96.504 93.4137 95.3187 94.1021 93.8388 93.9874C90.9606 93.9874 88.8029 92.0426 88.7599 89.7418C88.7599 88.1721 89.8612 87.1395 91.5112 87.1395C92.6965 87.1395 93.7527 87.7229 93.7527 88.9365C93.7527 89.8176 92.7805 90.7355 92.7805 91.1946C92.7805 92.3808 93.542 92.9448 95.0241 92.9448C96.2072 92.9448 97.1753 92.2564 97.9002 90.8794C98.8748 89.3099 98.9585 87.5888 98.154 85.6749L92.0619 71.0979C90.6638 67.7316 89.6054 66.625 88.2952 66.5063V66.0081H97.9002V66.5059C96.7579 66.6208 96.1664 67.2334 96.1664 68.3418C96.1664 69.1451 96.504 70.3704 97.1386 71.9399L98.2809 74.77C99.5931 77.831 100.647 80.5091 101.202 82.1935C102.428 78.7121 103.569 75.6509 104.672 72.9727C105.477 70.983 105.857 69.5673 105.857 68.7251C105.857 67.2334 104.969 66.545 103.614 66.545L103.624 66.0238ZM36.8008 84.6577C35.5748 84.4633 34.5164 83.4714 34.5164 81.367V68.6835V56L27.5337 57.3771V57.9139C28.7189 57.799 29.8998 58.7539 29.8998 60.7825V81.367C29.8998 83.3567 28.7146 84.5042 27.5337 84.6577C27.4227 84.6754 27.3104 84.6878 27.198 84.6946C26.5937 84.7322 25.9883 84.6355 25.4342 84.4127C24.4962 84.0431 23.7133 83.3839 23.0505 82.3998L19.824 77.732C19.1435 76.7475 18.132 75.9892 16.94 75.5702C15.7452 75.1495 14.4335 75.0892 13.1982 75.3981L16.838 71.7634C19.5872 69.0095 22.1278 67.2493 24.5392 66.522V66.0236H16.5327V66.5216C18.6062 67.2489 18.4793 68.8555 16.1025 71.3838L10.9828 76.7767V56L4 57.3771V57.9139C5.18527 57.9139 6.36618 58.9834 6.36618 60.8583V81.367C6.36618 83.6251 5.2241 84.5042 4 84.6577V85.1557H13.2757V84.6577C11.7528 84.4633 10.9913 83.3956 10.9913 81.367V77.5802L12.9789 75.5908L17.7932 82.744C18.9356 84.4671 19.9939 85.1557 21.6869 85.1557H37.799V84.7667C37.799 84.7667 37.3386 84.7375 36.8008 84.6577ZM56.0239 82.2383V73.6808C55.9312 68.0855 53.3369 65.5378 47.3955 65.5378C45.4986 65.5244 43.6514 66.0899 42.1489 67.1439C40.5828 68.2157 39.8213 69.441 39.8213 70.8569C39.8213 72.234 40.6668 73.2666 42.0627 73.2666C43.545 73.2666 44.6034 72.5022 44.6034 71.4307C44.6034 70.6274 44.0095 69.517 44.0095 68.7525C44.0095 67.3737 45.154 66.1873 47.1416 66.1873C49.6823 66.1873 51.5 67.9106 51.5 71.736V74.031L49.3853 74.4899C48.2839 74.6843 47.3547 74.8789 46.6339 75.0734C45.9134 75.2678 44.9842 75.5324 43.8826 75.9135C41.6819 76.68 40.4989 77.4073 39.4815 78.7843C38.9834 79.4499 38.718 80.2369 38.72 81.0422C38.72 84.2163 41.1743 85.6712 44.6034 85.6712C47.3115 85.6712 50.1963 84.3699 51.5 81.9213C51.5187 82.6937 51.7233 83.453 52.1002 84.1463C53.5349 86.7718 58.2869 85.2198 58.2869 85.2198V84.722C56.2066 85.0157 56.0346 82.779 56.0239 82.2383ZM51.5063 79.5894C51.5063 80.8516 50.9986 81.8844 49.9835 82.6117C49.011 83.3392 47.9956 83.7223 46.9373 83.7223C44.8635 83.7223 43.5084 82.497 43.5084 80.2389C43.5084 79.1694 44.1537 78.1734 44.6937 77.5999C45.1216 77.2036 45.6234 76.8796 46.1757 76.6428C46.8943 76.2986 47.2513 76.1217 47.7418 75.9155L49.6779 75.266C50.6501 74.9218 51.2418 74.7311 51.4956 74.6165L51.5063 79.5894ZM145 66.0238H128.542V56H145L141.545 61.012L145 66.0238ZM111.545 82.7206C110.533 81.779 109.734 80.6646 109.195 79.4415C108.657 78.2183 108.389 76.9104 108.406 75.5928C108.384 74.2813 108.65 72.979 109.189 71.7625C109.729 70.5439 110.53 69.4354 111.545 68.5016C113.621 66.5101 116.164 65.5124 119.132 65.5124C122.056 65.5124 124.601 66.5101 126.676 68.5016C127.706 69.4279 128.518 70.5343 129.066 71.7541C129.612 72.9717 129.881 74.2777 129.856 75.5928C129.877 76.9128 129.607 78.2233 129.061 79.4464C128.514 80.6717 127.703 81.785 126.676 82.7206C124.601 84.6655 122.056 85.6712 119.132 85.6712C116.164 85.6712 113.621 84.6752 111.545 82.7206ZM122.946 68.8206C122.109 67.3406 121.01 66.4732 119.719 66.2397C117.102 65.7633 114.787 68.1962 113.924 72.0647C113.556 73.7999 113.467 75.5747 113.66 77.3332C113.849 79.0933 114.39 80.807 115.256 82.3901C116.095 83.8721 117.192 84.7375 118.483 84.9708C121.101 85.4474 123.482 82.9113 124.351 79.0039C125.072 75.7386 124.706 71.7614 122.936 68.8186L122.946 68.8206Z" fill="#D9D9D9" stroke="#6D31ED" stroke-width="2" mask="url(#path-2-inside-1_10_2)"/>
<path d="M74.1588 67.4246C73.9441 67.051 73.6424 66.7524 73.2764 66.5238H77.299C76.9405 66.7117 76.6116 66.9475 76.3237 67.225C75.5584 67.8941 74.8882 68.821 74.3026 69.9927C74.603 69.0143 74.5665 68.1341 74.1588 67.4246ZM81.8909 67.0603C81.7191 66.8354 81.5159 66.6603 81.306 66.5238H86.0207V81.367C86.0207 82.5145 86.2926 83.415 86.7825 84.0607C86.963 84.2986 87.1688 84.4962 87.393 84.6557H80.8978C81.1257 84.4985 81.3379 84.3045 81.5264 84.0716C82.0463 83.4289 82.357 82.5263 82.357 81.367V68.5367C82.357 67.9268 82.1797 67.4381 81.8909 67.0603ZM69.607 81.8922C69.7492 81.4377 70.0139 80.6859 71.3711 77.2966C70.7579 78.8853 70.1359 80.5079 69.607 81.8922ZM68.5279 82.3162L68.9581 83.5933C68.8029 84.0009 68.6663 84.3601 68.5533 84.6577H66.0416C65.3075 82.6389 63.5137 77.8101 61.9707 74.246C61.9705 74.2455 61.9703 74.2451 61.9701 74.2446L60.4918 70.7719C59.9517 69.4065 59.3461 68.3119 58.6697 67.5155C58.3262 67.111 57.959 66.7775 57.5681 66.5258H64.415C64.083 66.7809 63.8614 67.1277 63.7509 67.5556C63.6337 68.0092 63.6446 68.5393 63.7466 69.1364C63.8493 69.7371 64.0499 70.4371 64.3408 71.2459L64.3408 71.2459L64.3423 71.25C64.6424 72.0623 65.3665 73.8717 66.4645 76.5834C67.3925 78.8758 68.017 80.7698 68.3675 81.8327C68.4295 82.0207 68.4829 82.1826 68.5279 82.3162Z" fill="#D9D9D9" stroke="#6D31ED"/>
</g>
</g>
<defs>
<clipPath id="clip0_10_2">
<rect width="150" height="150" fill="white"/>
</clipPath>
<clipPath id="clip1_10_2">
<rect width="141" height="38" fill="white" transform="translate(4 56)"/>
</clipPath>
</defs>
</svg>
