<svg width="150" height="150" viewBox="0 0 150 150" fill="none" xmlns="http://www.w3.org/2000/svg">
<rect width="150" height="150" rx="20" fill="#F4F4F4"/>
<path d="M60.7501 35H37.0002L37 58.75M113 58.75V35L89.2499 34.9999M89.2499 111H113L113 87.2501M37 87.2501L37 111L60.7501 111" stroke="#6D31ED" stroke-width="1.5" stroke-linecap="round" stroke-linejoin="round"/>
<path opacity="0.2" fill-rule="evenodd" clip-rule="evenodd" d="M111.75 61.75C111.06 61.75 110.5 62.3096 110.5 63V63.711C110.5 64.2457 110.141 64.7103 109.647 64.9154C109.153 65.1205 108.578 65.0423 108.2 64.664L107.697 64.1611C107.209 63.673 106.417 63.673 105.929 64.1611L104.161 65.9289C103.673 66.4171 103.673 67.2085 104.161 67.6967L104.664 68.1996C105.042 68.5779 105.12 69.1531 104.915 69.6472C104.71 70.1411 104.246 70.5 103.711 70.5L103 70.5C102.31 70.5 101.75 71.0596 101.75 71.75V74.25C101.75 74.9404 102.31 75.5 103 75.5H103.711C104.246 75.5 104.71 75.8589 104.915 76.3528C105.12 76.8468 105.042 77.4221 104.664 77.8004L104.161 78.3033C103.673 78.7914 103.673 79.5829 104.161 80.071L105.929 81.8388C106.417 82.327 107.208 82.327 107.697 81.8388L108.199 81.336C108.578 80.9577 109.153 80.8795 109.647 81.0846C110.141 81.2897 110.5 81.7543 110.5 82.2891V83C110.5 83.6904 111.06 84.25 111.75 84.25H114.25C114.94 84.25 115.5 83.6904 115.5 83V82.289C115.5 81.7543 115.859 81.2897 116.353 81.0846C116.847 80.8795 117.422 80.9577 117.8 81.336L118.303 81.8388C118.791 82.327 119.583 82.327 120.071 81.8388L121.839 80.071C122.327 79.5829 122.327 78.7914 121.839 78.3033L121.336 77.8004C120.958 77.4222 120.88 76.8469 121.085 76.3528C121.29 75.8589 121.754 75.5 122.289 75.5H123C123.69 75.5 124.25 74.9404 124.25 74.25V71.75C124.25 71.0596 123.69 70.5 123 70.5H122.289C121.754 70.5 121.29 70.1411 121.085 69.6472C120.879 69.1531 120.958 68.5778 121.336 68.1995L121.839 67.6967C122.327 67.2085 122.327 66.4171 121.839 65.9289L120.071 64.1611C119.583 63.673 118.791 63.673 118.303 64.1611L117.8 64.664C117.422 65.0423 116.847 65.1205 116.353 64.9154C115.859 64.7103 115.5 64.2457 115.5 63.711V63C115.5 62.3096 114.94 61.75 114.25 61.75H111.75ZM113 75.5C114.381 75.5 115.5 74.3807 115.5 73C115.5 71.6193 114.381 70.5 113 70.5C111.619 70.5 110.5 71.6193 110.5 73C110.5 74.3807 111.619 75.5 113 75.5Z" fill="#6D31ED"/>
<path d="M111.75 61.75H114.25C114.94 61.75 115.5 62.3096 115.5 63V63.711C115.5 64.2457 115.859 64.7103 116.353 64.9154C116.847 65.1205 117.422 65.0423 117.8 64.664L118.303 64.1611C118.791 63.673 119.583 63.673 120.071 64.1611L121.839 65.9289C122.327 66.4171 122.327 67.2085 121.839 67.6967L121.336 68.1995C120.958 68.5778 120.879 69.1531 121.085 69.6472C121.29 70.1411 121.754 70.5 122.289 70.5L123 70.5C123.69 70.5 124.25 71.0596 124.25 71.75V74.25C124.25 74.9404 123.69 75.5 123 75.5H122.289C121.754 75.5 121.29 75.8589 121.085 76.3528C120.88 76.8469 120.958 77.4222 121.336 77.8004L121.839 78.3033C122.327 78.7914 122.327 79.5829 121.839 80.071L120.071 81.8388C119.583 82.327 118.791 82.327 118.303 81.8388L117.8 81.336C117.422 80.9577 116.847 80.8795 116.353 81.0846C115.859 81.2897 115.5 81.7543 115.5 82.289V83C115.5 83.6904 114.94 84.25 114.25 84.25H111.75C111.06 84.25 110.5 83.6904 110.5 83V82.2891C110.5 81.7543 110.141 81.2897 109.647 81.0846C109.153 80.8795 108.578 80.9577 108.199 81.336L107.697 81.8388C107.208 82.327 106.417 82.327 105.929 81.8388L104.161 80.071C103.673 79.5829 103.673 78.7914 104.161 78.3033L104.664 77.8004C105.042 77.4221 105.12 76.8468 104.915 76.3528C104.71 75.8589 104.246 75.5 103.711 75.5H103C102.31 75.5 101.75 74.9404 101.75 74.25V71.75C101.75 71.0596 102.31 70.5 103 70.5L103.711 70.5C104.246 70.5 104.71 70.1411 104.915 69.6472C105.12 69.1531 105.042 68.5779 104.664 68.1996L104.161 67.6967C103.673 67.2085 103.673 66.4171 104.161 65.9289L105.929 64.1611C106.417 63.673 107.209 63.673 107.697 64.1611L108.2 64.664C108.578 65.0423 109.153 65.1205 109.647 64.9154C110.141 64.7103 110.5 64.2457 110.5 63.711V63C110.5 62.3096 111.06 61.75 111.75 61.75Z" stroke="#6D31ED" stroke-width="1.5"/>
<path d="M115.5 73C115.5 74.3807 114.381 75.5 113 75.5C111.619 75.5 110.5 74.3807 110.5 73C110.5 71.6193 111.619 70.5 113 70.5C114.381 70.5 115.5 71.6193 115.5 73Z" stroke="#6D31ED" stroke-width="1.5"/>
<path d="M67.516 60.99L76.382 83H69.934L68.88 79.931H61.471L60.448 83H54.186L62.959 60.99H67.516ZM65.098 68.523L62.928 75.405H67.392L65.098 68.523ZM89.155 67.283V66.26H94.208V83H89.341V81.667C88.535 82.256 87.202 83.341 84.722 83.341C83.668 83.341 81.746 83.124 79.793 81.326C78.832 80.458 76.848 78.226 76.848 74.63C76.848 73.638 77.034 71.375 78.677 69.143C80.196 67.159 82.49 65.919 85.001 65.919C87.171 65.919 88.473 66.818 89.155 67.283ZM82.986 77.327C83.668 78.009 84.66 78.443 85.652 78.443C87.76 78.412 89.434 76.738 89.434 74.63C89.403 72.553 87.729 70.848 85.621 70.848C83.544 70.848 81.839 72.584 81.839 74.661C81.839 75.653 82.242 76.614 82.986 77.327Z" fill="#B898FF"/>
</svg>
