<svg width="18" height="19" viewBox="0 0 18 19" fill="none" xmlns="http://www.w3.org/2000/svg">
<path d="M16.4588 18.1231C16.493 18.1231 16.5272 18.1203 16.5609 18.1147L16.5643 18.1141C16.8649 18.0641 17.0852 17.8041 17.0852 17.4995V12.5518C17.0852 11.3279 16.9604 10.0992 16.3752 9.16962C15.7483 8.17404 14.6801 7.64371 13.1114 7.64371C12.2662 7.64371 11.5552 7.88979 11.0023 8.25491C10.9088 8.02879 10.6861 7.86968 10.4262 7.86968H7.74324C7.39913 7.86968 7.12017 8.14864 7.12017 8.49275V17.4995C7.12017 17.8436 7.39913 18.1225 7.74324 18.1225H10.5369C10.881 18.1225 11.16 17.8436 11.16 17.4995V13.0397C11.16 12.4639 11.2205 12.0268 11.3756 11.7453C11.4452 11.6192 11.5301 11.5317 11.6401 11.4708C11.7537 11.4079 11.9312 11.353 12.2137 11.353C12.4725 11.353 12.6108 11.4122 12.6889 11.4667C12.7683 11.5221 12.8396 11.6105 12.8988 11.7601C13.0315 12.095 13.0448 12.5654 13.0448 13.115V17.5C13.0448 17.8441 13.3238 18.1231 13.6679 18.1231H16.4588ZM1.56702 7.87024C1.22291 7.87024 0.943949 8.1492 0.943949 8.49331V17.5C0.943949 17.8441 1.22291 18.1231 1.56702 18.1231H4.36408C4.70819 18.1231 4.98715 17.8441 4.98715 17.5V8.49331C4.98715 8.1492 4.70819 7.87024 4.36408 7.87024H1.56702ZM3.18746 1.30027H3.18703C1.9486 1.30027 0.943958 2.30491 0.943958 3.54334C0.943958 4.7742 1.94107 5.80159 3.18703 5.80159C4.43299 5.80159 5.4301 4.7742 5.4301 3.54334L5.4301 3.54291C5.42969 2.94825 5.19328 2.37807 4.77279 1.95758C4.35231 1.53709 3.78212 1.30068 3.18746 1.30027Z" stroke="#4867A9" stroke-width="1.24613" stroke-linejoin="round"/>
</svg>
