<svg width="150" height="150" viewBox="0 0 150 150" fill="none" xmlns="http://www.w3.org/2000/svg">
<rect width="150" height="150" rx="20" fill="#F4F4F4"/>
<g clip-path="url(#clip0_114_62)">
<path opacity="0.15" d="M75 37.5C61.1929 37.5 50 48.6929 50 62.5C50 79.1667 41.6667 95.8333 41.6667 95.8333H108.333C108.333 95.8333 100 79.1667 100 62.5C100 48.6929 88.8071 37.5 75 37.5Z" fill="#6D31ED"/>
<path d="M62.5 95.8333V100C62.5 101.642 62.8233 103.267 63.4515 104.784C64.0797 106.3 65.0004 107.678 66.1612 108.839C67.3219 110 68.6999 110.92 70.2165 111.548C71.733 112.177 73.3585 112.5 75 112.5C76.6415 112.5 78.267 112.177 79.7835 111.548C81.3001 110.92 82.6781 110 83.8388 108.839C84.9996 107.678 85.9203 106.3 86.5485 104.784C87.1767 103.267 87.5 101.642 87.5 100V95.8333M100 62.5C100 75 108.333 95.8333 108.333 95.8333H41.6667C41.6667 95.8333 50 79.1666 50 62.5C50 48.8833 61.3833 37.5 75 37.5C88.6167 37.5 100 48.8833 100 62.5Z" stroke="#6D31ED" stroke-width="1.5" stroke-linecap="round" stroke-linejoin="round"/>
<path opacity="0.2" fill-rule="evenodd" clip-rule="evenodd" d="M107.75 29.75C107.06 29.75 106.5 30.3096 106.5 31V31.711C106.5 32.2457 106.141 32.7103 105.647 32.9154C105.153 33.1205 104.578 33.0423 104.2 32.664L103.697 32.1611C103.209 31.673 102.417 31.673 101.929 32.1611L100.161 33.9289C99.673 34.4171 99.673 35.2085 100.161 35.6967L100.664 36.1996C101.042 36.5779 101.12 37.1531 100.915 37.6472C100.71 38.1411 100.246 38.5 99.711 38.5L99 38.5C98.3096 38.5 97.75 39.0596 97.75 39.75V42.25C97.75 42.9404 98.3096 43.5 99 43.5H99.711C100.246 43.5 100.71 43.8589 100.915 44.3528C101.12 44.8468 101.042 45.4221 100.664 45.8004L100.161 46.3033C99.673 46.7914 99.673 47.5829 100.161 48.071L101.929 49.8388C102.417 50.327 103.208 50.327 103.697 49.8388L104.199 49.336C104.578 48.9577 105.153 48.8795 105.647 49.0846C106.141 49.2897 106.5 49.7543 106.5 50.2891V51C106.5 51.6904 107.06 52.25 107.75 52.25H110.25C110.94 52.25 111.5 51.6904 111.5 51V50.289C111.5 49.7543 111.859 49.2897 112.353 49.0846C112.847 48.8795 113.422 48.9577 113.8 49.336L114.303 49.8388C114.791 50.327 115.583 50.327 116.071 49.8388L117.839 48.071C118.327 47.5829 118.327 46.7914 117.839 46.3033L117.336 45.8004C116.958 45.4222 116.88 44.8469 117.085 44.3528C117.29 43.8589 117.754 43.5 118.289 43.5H119C119.69 43.5 120.25 42.9404 120.25 42.25V39.75C120.25 39.0596 119.69 38.5 119 38.5H118.289C117.754 38.5 117.29 38.1411 117.085 37.6472C116.879 37.1531 116.958 36.5778 117.336 36.1995L117.839 35.6967C118.327 35.2085 118.327 34.4171 117.839 33.9289L116.071 32.1611C115.583 31.673 114.791 31.673 114.303 32.1611L113.8 32.664C113.422 33.0423 112.847 33.1205 112.353 32.9154C111.859 32.7103 111.5 32.2457 111.5 31.711V31C111.5 30.3096 110.94 29.75 110.25 29.75H107.75ZM109 43.5C110.381 43.5 111.5 42.3807 111.5 41C111.5 39.6193 110.381 38.5 109 38.5C107.619 38.5 106.5 39.6193 106.5 41C106.5 42.3807 107.619 43.5 109 43.5Z" fill="#6D31ED"/>
<path d="M107.75 29.75H110.25C110.94 29.75 111.5 30.3096 111.5 31V31.711C111.5 32.2457 111.859 32.7103 112.353 32.9154C112.847 33.1205 113.422 33.0423 113.8 32.664L114.303 32.1611C114.791 31.673 115.583 31.673 116.071 32.1611L117.839 33.9289C118.327 34.4171 118.327 35.2085 117.839 35.6967L117.336 36.1995C116.958 36.5778 116.879 37.1531 117.085 37.6472C117.29 38.1411 117.754 38.5 118.289 38.5L119 38.5C119.69 38.5 120.25 39.0596 120.25 39.75V42.25C120.25 42.9404 119.69 43.5 119 43.5H118.289C117.754 43.5 117.29 43.8589 117.085 44.3528C116.88 44.8469 116.958 45.4222 117.336 45.8004L117.839 46.3033C118.327 46.7914 118.327 47.5829 117.839 48.071L116.071 49.8388C115.583 50.327 114.791 50.327 114.303 49.8388L113.8 49.336C113.422 48.9577 112.847 48.8795 112.353 49.0846C111.859 49.2897 111.5 49.7543 111.5 50.289V51C111.5 51.6904 110.94 52.25 110.25 52.25H107.75C107.06 52.25 106.5 51.6904 106.5 51V50.2891C106.5 49.7543 106.141 49.2897 105.647 49.0846C105.153 48.8795 104.578 48.9577 104.199 49.336L103.697 49.8388C103.208 50.327 102.417 50.327 101.929 49.8388L100.161 48.071C99.673 47.5829 99.673 46.7914 100.161 46.3033L100.664 45.8004C101.042 45.4221 101.12 44.8468 100.915 44.3528C100.71 43.8589 100.246 43.5 99.711 43.5H99C98.3096 43.5 97.75 42.9404 97.75 42.25V39.75C97.75 39.0596 98.3096 38.5 99 38.5L99.711 38.5C100.246 38.5 100.71 38.1411 100.915 37.6472C101.12 37.1531 101.042 36.5779 100.664 36.1996L100.161 35.6967C99.673 35.2085 99.673 34.4171 100.161 33.9289L101.929 32.1611C102.417 31.673 103.209 31.673 103.697 32.1611L104.2 32.664C104.578 33.0423 105.153 33.1205 105.647 32.9154C106.141 32.7103 106.5 32.2457 106.5 31.711V31C106.5 30.3096 107.06 29.75 107.75 29.75Z" stroke="#6D31ED" stroke-width="1.5"/>
<path d="M111.5 41C111.5 42.3807 110.381 43.5 109 43.5C107.619 43.5 106.5 42.3807 106.5 41C106.5 39.6193 107.619 38.5 109 38.5C110.381 38.5 111.5 39.6193 111.5 41Z" stroke="#6D31ED" stroke-width="1.5"/>
</g>
<defs>
<clipPath id="clip0_114_62">
<rect width="100" height="100" fill="white" transform="translate(25 25)"/>
</clipPath>
</defs>
</svg>
