<svg width="63" height="69" viewBox="0 0 63 69" fill="none" xmlns="http://www.w3.org/2000/svg">
<path d="M18.7936 15.9666H30.2425L31.735 30.89C32.1618 35.1596 28.8091 38.8645 24.518 38.8645C20.2272 38.8645 16.8743 35.1596 17.3013 30.89L18.7936 15.9666Z" stroke="#012167" stroke-width="3.46638"/>
<path d="M4.66499 23.6404C5.07275 21.6016 5.27664 20.5822 5.69118 19.7558C6.56467 18.0145 8.1364 16.726 10.0152 16.211C10.9068 15.9666 11.9464 15.9666 14.0256 15.9666H18.7936L17.1346 32.5567C16.7765 36.1375 13.7633 38.8645 10.1646 38.8645C5.74428 38.8645 2.42899 34.8205 3.29588 30.486L4.66499 23.6404Z" stroke="#012167" stroke-width="3.46638"/>
<path d="M44.3711 23.6404C43.9633 21.6016 43.7593 20.5822 43.3448 19.7558C42.4713 18.0145 40.8996 16.726 39.0208 16.211C38.1292 15.9666 37.0896 15.9666 35.0105 15.9666H30.2424L31.9014 32.5567C32.2595 36.1375 35.2726 38.8645 38.8715 38.8645C43.2917 38.8645 46.6071 34.8205 45.7402 30.486L44.3711 23.6404Z" stroke="#012167" stroke-width="3.46638"/>
<path opacity="0.5" d="M17.0763 60.6175C17.0763 61.5659 17.8452 62.3348 18.7937 62.3348C19.7421 62.3348 20.511 61.5659 20.511 60.6175H17.0763ZM28.5253 60.6175C28.5253 61.5659 29.2942 62.3348 30.2426 62.3348C31.191 62.3348 31.96 61.5659 31.96 60.6175H28.5253ZM25.663 60.0451H23.3732V63.4797H25.663V60.0451ZM6.77227 43.4441V36.5747H3.33759V43.4441H6.77227ZM42.264 36.5747V43.4441H45.6987V36.5747H42.264ZM23.3732 60.0451C19.007 60.0451 15.9051 60.0414 13.552 59.7249C11.2483 59.4154 9.92098 58.8344 8.95192 57.8654L6.52323 60.2942C8.23684 62.0076 10.4097 62.7681 13.0943 63.1292C15.7295 63.4834 19.1041 63.4797 23.3732 63.4797V60.0451ZM3.33759 43.4441C3.33759 47.7132 3.33395 51.0879 3.68822 53.7229C4.04916 56.4075 4.80965 58.5805 6.52323 60.2942L8.95192 57.8654C7.98286 56.8964 7.40201 55.569 7.09229 53.2654C6.77591 50.9122 6.77227 47.8102 6.77227 43.4441H3.33759ZM25.663 63.4797C29.9321 63.4797 33.3068 63.4834 35.9419 63.1292C38.6265 62.7681 40.7995 62.0076 42.5131 60.2942L40.0844 57.8654C39.1153 58.8344 37.7879 59.4154 35.4844 59.7249C33.1312 60.0414 30.0292 60.0451 25.663 60.0451V63.4797ZM42.264 43.4441C42.264 47.8102 42.2604 50.9122 41.9439 53.2654C41.6343 55.569 41.0534 56.8964 40.0844 57.8654L42.5131 60.2942C44.2266 58.5805 44.987 56.4075 45.3481 53.7229C45.7024 51.0879 45.6987 47.7132 45.6987 43.4441H42.264ZM20.511 60.6175V53.7481H17.0763V60.6175H20.511ZM28.5253 53.7481V60.6175H31.96V53.7481H28.5253ZM24.5181 49.741C25.6198 49.741 26.3312 49.7426 26.8704 49.7916C27.3859 49.8383 27.573 49.9171 27.6666 49.9711L29.3839 46.9965C28.6805 46.5905 27.9341 46.4391 27.1805 46.3709C26.4503 46.3047 25.5566 46.3063 24.5181 46.3063V49.741ZM31.96 53.7481C31.96 52.7097 31.9616 51.816 31.8954 51.0858C31.8272 50.3322 31.6758 49.5857 31.2698 48.8823L28.2952 50.5997C28.3492 50.6933 28.428 50.8804 28.4747 51.3958C28.5237 51.9351 28.5253 52.6465 28.5253 53.7481H31.96ZM27.6666 49.9711C27.9276 50.1218 28.1445 50.3386 28.2952 50.5997L31.2698 48.8823C30.8176 48.0992 30.1671 47.4487 29.3839 46.9965L27.6666 49.9711ZM20.511 53.7481C20.511 52.6465 20.5126 51.9351 20.5616 51.3958C20.6083 50.8804 20.6871 50.6933 20.7411 50.5997L17.7666 48.8823C17.3604 49.5857 17.2092 50.3322 17.1409 51.0858C17.0747 51.816 17.0763 52.7097 17.0763 53.7481H20.511ZM24.5181 46.3063C23.4797 46.3063 22.586 46.3047 21.8558 46.3709C21.1022 46.4391 20.3558 46.5905 19.6523 46.9965L21.3697 49.9711C21.4633 49.9171 21.6504 49.8383 22.1658 49.7916C22.7051 49.7426 23.4165 49.741 24.5181 49.741V46.3063ZM20.7411 50.5997C20.8918 50.3386 21.1086 50.1218 21.3697 49.9711L19.6523 46.9965C18.8691 47.4487 18.2187 48.0992 17.7666 48.8823L20.7411 50.5997Z" fill="#012167"/>
<path d="M51.673 1.76293C51.7884 1.47032 52.2025 1.47032 52.3179 1.76293L53.844 5.63244C54.5487 7.41917 55.963 8.8335 57.7498 9.53818L61.6193 11.0643C61.9119 11.1797 61.9119 11.5938 61.6193 11.7092L57.7498 13.2353C55.963 13.94 54.5487 15.3543 53.844 17.1411L52.3179 21.0106C52.2025 21.3032 51.7884 21.3032 51.673 21.0106L50.1469 17.1411C49.4422 15.3543 48.0279 13.94 46.2411 13.2353L42.3716 11.7092C42.079 11.5938 42.079 11.1797 42.3716 11.0643L46.2411 9.53818C48.0279 8.8335 49.4422 7.41917 50.1469 5.63244L51.673 1.76293Z" fill="#012167"/>
<rect y="65" width="50" height="3.67437" rx="1.83718" fill="#012167"/>
</svg>
