<svg width="62" height="63" viewBox="0 0 62 63" fill="none" xmlns="http://www.w3.org/2000/svg">
<path d="M17.7936 15.0212H29.2425L30.735 29.9446C31.1618 34.2143 27.8091 37.9191 23.518 37.9191C19.2272 37.9191 15.8743 34.2143 16.3013 29.9446L17.7936 15.0212Z" stroke="white" stroke-width="3.46638"/>
<path d="M3.66499 22.6951C4.07275 20.6563 4.27664 19.6368 4.69118 18.8105C5.56467 17.0692 7.1364 15.7807 9.01515 15.2657C9.90677 15.0212 10.9464 15.0212 13.0256 15.0212H17.7936L16.1346 31.6114C15.7765 35.1922 12.7633 37.9191 9.16461 37.9191C4.74428 37.9191 1.42899 33.8751 2.29588 29.5406L3.66499 22.6951Z" stroke="white" stroke-width="3.46638"/>
<path d="M43.3711 22.6951C42.9633 20.6563 42.7593 19.6368 42.3448 18.8105C41.4713 17.0692 39.8996 15.7807 38.0208 15.2657C37.1292 15.0212 36.0896 15.0212 34.0105 15.0212H29.2424L30.9014 31.6114C31.2595 35.1922 34.2726 37.9191 37.8715 37.9191C42.2917 37.9191 45.6071 33.8751 44.7402 29.5406L43.3711 22.6951Z" stroke="white" stroke-width="3.46638"/>
<path opacity="0.5" d="M16.0763 59.6721C16.0763 60.6205 16.8452 61.3894 17.7937 61.3894C18.7421 61.3894 19.511 60.6205 19.511 59.6721H16.0763ZM27.5253 59.6721C27.5253 60.6205 28.2942 61.3894 29.2426 61.3894C30.191 61.3894 30.96 60.6205 30.96 59.6721H27.5253ZM24.663 59.0996H22.3732V62.5343H24.663V59.0996ZM5.77227 42.4986V35.6293H2.33759V42.4986H5.77227ZM41.264 35.6293V42.4986H44.6987V35.6293H41.264ZM22.3732 59.0996C18.007 59.0996 14.9051 59.096 12.552 58.7795C10.2483 58.4699 8.92098 57.889 7.95192 56.92L5.52323 59.3487C7.23684 61.0622 9.40972 61.8226 12.0943 62.1837C14.7295 62.538 18.1041 62.5343 22.3732 62.5343V59.0996ZM2.33759 42.4986C2.33759 46.7677 2.33395 50.1424 2.68822 52.7775C3.04916 55.4621 3.80965 57.6351 5.52323 59.3487L7.95192 56.92C6.98286 55.9509 6.40201 54.6235 6.09229 52.32C5.77591 49.9668 5.77227 46.8648 5.77227 42.4986H2.33759ZM24.663 62.5343C28.9321 62.5343 32.3068 62.538 34.9419 62.1837C37.6265 61.8226 39.7995 61.0622 41.5131 59.3487L39.0844 56.92C38.1153 57.889 36.7879 58.4699 34.4844 58.7795C32.1312 59.096 29.0292 59.0996 24.663 59.0996V62.5343ZM41.264 42.4986C41.264 46.8648 41.2604 49.9668 40.9439 52.32C40.6343 54.6235 40.0534 55.9509 39.0844 56.92L41.5131 59.3487C43.2266 57.6351 43.987 55.4621 44.3481 52.7775C44.7024 50.1424 44.6987 46.7677 44.6987 42.4986H41.264ZM19.511 59.6721V52.8027H16.0763V59.6721H19.511ZM27.5253 52.8027V59.6721H30.96V52.8027H27.5253ZM23.5181 48.7956C24.6198 48.7956 25.3312 48.7972 25.8704 48.8462C26.3859 48.8929 26.573 48.9716 26.6666 49.0257L28.3839 46.051C27.6805 45.645 26.9341 45.4937 26.1805 45.4255C25.4503 45.3593 24.5566 45.3609 23.5181 45.3609V48.7956ZM30.96 52.8027C30.96 51.7643 30.9616 50.8706 30.8954 50.1404C30.8272 49.3868 30.6758 48.6403 30.2698 47.9369L27.2952 49.6542C27.3492 49.7479 27.428 49.935 27.4747 50.4504C27.5237 50.9896 27.5253 51.7011 27.5253 52.8027H30.96ZM26.6666 49.0257C26.9276 49.1764 27.1445 49.3932 27.2952 49.6542L30.2698 47.9369C29.8176 47.1538 29.1671 46.5033 28.3839 46.051L26.6666 49.0257ZM19.511 52.8027C19.511 51.7011 19.5126 50.9896 19.5616 50.4504C19.6083 49.935 19.6871 49.7479 19.7411 49.6542L16.7666 47.9369C16.3604 48.6403 16.2092 49.3868 16.1409 50.1404C16.0747 50.8706 16.0763 51.7643 16.0763 52.8027H19.511ZM23.5181 45.3609C22.4797 45.3609 21.586 45.3593 20.8558 45.4255C20.1022 45.4937 19.3558 45.645 18.6523 46.051L20.3697 49.0257C20.4633 48.9716 20.6504 48.8929 21.1658 48.8462C21.7051 48.7972 22.4165 48.7956 23.5181 48.7956V45.3609ZM19.7411 49.6542C19.8918 49.3932 20.1086 49.1764 20.3697 49.0257L18.6523 46.051C17.8691 46.5033 17.2187 47.1538 16.7666 47.9369L19.7411 49.6542Z" fill="white"/>
<path d="M50.673 0.817621C50.7884 0.525007 51.2025 0.525008 51.3179 0.817621L52.844 4.68713C53.5487 6.47386 54.963 7.88819 56.7498 8.59286L60.6193 10.119C60.9119 10.2344 60.9119 10.6485 60.6193 10.7639L56.7498 12.29C54.963 12.9947 53.5487 14.409 52.844 16.1958L51.3179 20.0653C51.2025 20.3579 50.7884 20.3579 50.673 20.0653L49.1469 16.1958C48.4422 14.409 47.0279 12.9947 45.2411 12.29L41.3716 10.7639C41.079 10.6485 41.079 10.2344 41.3716 10.119L45.2411 8.59286C47.0279 7.88819 48.4422 6.47386 49.1469 4.68713L50.673 0.817621Z" fill="white"/>
</svg>
