<svg width="150" height="150" viewBox="0 0 150 150" fill="none" xmlns="http://www.w3.org/2000/svg">
<rect width="150" height="150" rx="20" fill="#F4F4F4"/>
<g opacity="0.2">
<path d="M112.5 100C112.5 106.904 106.904 112.5 100 112.5C93.0964 112.5 87.5 106.904 87.5 100C87.5 93.0964 93.0964 87.5 100 87.5C106.904 87.5 112.5 93.0964 112.5 100Z" fill="#6D31ED"/>
<path d="M112.5 50C112.5 56.9036 106.904 62.5 100 62.5C93.0964 62.5 87.5 56.9036 87.5 50C87.5 43.0964 93.0964 37.5 100 37.5C106.904 37.5 112.5 43.0964 112.5 50Z" fill="#6D31ED"/>
<path d="M62.5 75C62.5 81.9036 56.9036 87.5 50 87.5C43.0964 87.5 37.5 81.9036 37.5 75C37.5 68.0964 43.0964 62.5 50 62.5C56.9036 62.5 62.5 68.0964 62.5 75Z" fill="#6D31ED"/>
</g>
<path d="M61.1849 69.4075L88.8019 55.5991M88.8151 94.4075L61.2242 80.6121M112.5 50C112.5 56.9036 106.904 62.5 100 62.5C93.0964 62.5 87.5 56.9036 87.5 50C87.5 43.0964 93.0964 37.5 100 37.5C106.904 37.5 112.5 43.0964 112.5 50ZM62.5 75C62.5 81.9036 56.9036 87.5 50 87.5C43.0964 87.5 37.5 81.9036 37.5 75C37.5 68.0964 43.0964 62.5 50 62.5C56.9036 62.5 62.5 68.0964 62.5 75ZM112.5 100C112.5 106.904 106.904 112.5 100 112.5C93.0964 112.5 87.5 106.904 87.5 100C87.5 93.0964 93.0964 87.5 100 87.5C106.904 87.5 112.5 93.0964 112.5 100Z" stroke="#6D31ED" stroke-width="1.5"/>
</svg>
