<svg width="370" height="370" viewBox="0 0 370 370" fill="none" xmlns="http://www.w3.org/2000/svg">
<g clip-path="url(#clip0_1_22)">
<path d="M185 365C284.411 365 365 284.411 365 185C365 85.5887 284.411 5 185 5C85.5887 5 5 85.5887 5 185C5 284.411 85.5887 365 185 365Z" stroke="black" stroke-width="10"/>
<path d="M162.63 132.98C172.66 114.994 177.672 106 185.169 106C192.666 106 197.677 114.994 207.708 132.98L210.304 137.635C213.154 142.75 214.579 145.307 216.796 146.993C219.013 148.679 221.783 149.305 227.325 150.555L232.36 151.695C251.835 156.105 261.565 158.306 263.884 165.755C266.196 173.197 259.562 180.963 246.285 196.488L242.85 200.502C239.081 204.911 237.189 207.12 236.342 209.843C235.495 212.575 235.78 215.52 236.35 221.402L236.873 226.761C238.875 247.479 239.881 257.834 233.817 262.434C227.753 267.041 218.633 262.837 200.408 254.446L195.682 252.277C190.505 249.886 187.916 248.698 185.169 248.698C182.422 248.698 179.833 249.886 174.655 252.277L169.937 254.446C151.705 262.837 142.585 267.033 136.529 262.442C130.457 257.834 131.462 247.479 133.465 226.761L133.988 221.41C134.558 215.52 134.843 212.575 133.988 209.851C133.148 207.12 131.256 204.911 127.488 200.51L124.052 196.488C110.776 180.971 104.142 173.205 106.453 165.755C108.773 158.306 118.51 156.097 137.985 151.695L143.02 150.555C148.554 149.305 151.317 148.679 153.542 146.993C155.758 145.307 157.183 142.75 160.033 137.635L162.63 132.98Z" fill="black" stroke="black" stroke-width="11.875"/>
</g>
<defs>
<clipPath id="clip0_1_22">
<rect width="370" height="370" fill="white"/>
</clipPath>
</defs>
</svg>
