<svg width="370" height="370" viewBox="0 0 370 370" fill="none" xmlns="http://www.w3.org/2000/svg">
<circle cx="185" cy="185" r="180" stroke="black" stroke-width="10"/>
<path d="M162.461 129.813C172.491 111.827 177.503 102.833 185 102.833C192.497 102.833 197.508 111.827 207.539 129.813L210.135 134.468C212.985 139.583 214.41 142.14 216.627 143.826C218.844 145.512 221.614 146.138 227.156 147.388L232.191 148.528C251.666 152.938 261.396 155.139 263.715 162.588C266.027 170.03 259.393 177.796 246.116 193.321L242.681 197.335C238.912 201.744 237.02 203.953 236.173 206.676C235.326 209.408 235.611 212.353 236.181 218.235L236.704 223.594C238.706 244.312 239.712 254.667 233.648 259.267C227.584 263.874 218.464 259.67 200.239 251.279L195.513 249.11C190.336 246.719 187.747 245.531 185 245.531C182.253 245.531 179.664 246.719 174.486 249.11L169.768 251.279C151.536 259.67 142.416 263.866 136.36 259.275C130.288 254.667 131.293 244.312 133.296 223.594L133.819 218.243C134.389 212.353 134.674 209.408 133.819 206.684C132.979 203.953 131.087 201.744 127.319 197.343L123.883 193.321C110.607 177.804 103.973 170.038 106.284 162.588C108.604 155.139 118.341 152.93 137.816 148.528L142.851 147.388C148.385 146.138 151.148 145.512 153.373 143.826C155.589 142.14 157.014 139.583 159.864 134.468L162.461 129.813Z" stroke="black" stroke-width="11.875"/>
</svg>
