<svg width="23" height="19" viewBox="0 0 23 19" fill="none" xmlns="http://www.w3.org/2000/svg">
<path d="M2.38374 10.1899L2.38355 10.1898C1.29437 9.81955 1.2655 8.28954 2.33984 7.87789L2.33996 7.87784L19.2312 1.4096L19.2312 1.4096C20.4425 0.945773 21.6844 2.01548 21.4051 3.28244L18.3835 17.0018C18.1601 18.0183 16.9582 18.4617 16.1282 17.833C16.1281 17.833 16.128 17.8329 16.1279 17.8328L12.2177 14.8731L10.2278 16.8301L10.2263 16.8315C10.0883 16.9664 9.91241 17.0562 9.72215 17.0888M9.72215 17.0888L9.6167 16.4748M9.72215 17.0888C9.72215 17.0888 9.72215 17.0888 9.72216 17.0888L9.6167 16.4748M9.72215 17.0888C9.53188 17.1215 9.33617 17.0956 9.16099 17.0145L9.42278 16.4491C9.48332 16.4771 9.55095 16.486 9.6167 16.4748" stroke="#4867A9" stroke-width="1.24613"/>
</svg>
