<svg width="150" height="150" viewBox="0 0 150 150" fill="none" xmlns="http://www.w3.org/2000/svg">
<g clip-path="url(#clip0_12_2)">
<path d="M20 0H130C141.046 0 150 8.9543 150 20V130C150 141.046 141.046 150 130 150H20C8.9543 150 0 141.046 0 130V20C0 8.9543 8.9543 0 20 0Z" fill="#F4F4F4"/>
<path d="M113.674 74.8198L112.994 74.0829L112.259 74.7644L83.6706 101.263L83.6348 101.296L83.6025 101.332C82.9598 102.056 82.1936 102.627 81.3523 103.016C80.5112 103.404 79.61 103.602 78.7019 103.602C77.7937 103.602 76.8925 103.404 76.0515 103.016C75.2161 102.63 74.4548 102.065 73.815 101.348L56.5374 80.1162L55.8545 79.277L55.0716 80.0238L24.408 109.272L24.3497 109.328L24.3011 109.392C24.1507 109.59 23.9666 109.744 23.7662 109.846C23.5661 109.949 23.3521 110 23.1385 110C22.9249 110 22.7108 109.949 22.5108 109.846C22.3103 109.744 22.1263 109.59 21.9759 109.392L21.9467 109.353L21.9139 109.318L20.5305 107.818L20.5207 107.807L20.5106 107.797C20.3546 107.637 20.2259 107.44 20.1365 107.215C20.0471 106.99 20 106.745 20 106.496C20 106.246 20.0471 106.001 20.1365 105.776C20.2259 105.552 20.3546 105.355 20.5106 105.195L20.5725 105.132L20.6223 105.058L51.018 60.3661C51.652 59.6639 52.4034 59.109 53.2267 58.7292C54.0677 58.3411 54.9689 58.1425 55.8771 58.1425C56.7852 58.1425 57.6864 58.3411 58.5275 58.7292C59.3688 59.1174 60.135 59.6884 60.7777 60.4125L60.784 60.4197L60.7905 60.4267L78.082 79.1755L78.8727 80.0329L79.5993 79.1206L97.1214 57.122L97.679 56.4219L97.0448 55.7904L85.8047 44.5978C85.5984 44.3031 85.4581 43.9514 85.4025 43.5725C85.3433 43.17 85.3831 42.7585 85.5156 42.3813C85.6481 42.0042 85.8662 41.6808 86.1399 41.4384C86.3917 41.2155 86.6822 41.0679 86.9849 41H124.65C125.778 41.1128 126.844 41.6909 127.619 42.6459C128.406 43.6151 128.825 44.8916 128.77 46.208L128.769 46.2316L128.769 46.2553L129 86.9612C128.968 87.3368 128.842 87.69 128.644 87.9833C128.439 88.285 128.169 88.5074 127.871 88.6366C127.574 88.7654 127.255 88.8 126.945 88.7402C126.642 88.6816 126.351 88.5324 126.105 88.2979L113.674 74.8198Z" fill="#D9D9D9" stroke="#6D31ED" stroke-width="2"/>
</g>
<defs>
<clipPath id="clip0_12_2">
<rect width="150" height="150" fill="white" transform="matrix(-1 0 0 1 150 0)"/>
</clipPath>
</defs>
</svg>
