<svg width="25" height="25" viewBox="0 0 25 25" fill="none" xmlns="http://www.w3.org/2000/svg">
<g opacity="0.2">
<path d="M21.8751 18.75C21.8751 20.4759 20.476 21.875 18.7501 21.875C17.0242 21.875 15.6251 20.4759 15.6251 18.75C15.6251 17.0241 17.0242 15.625 18.7501 15.625C20.476 15.625 21.8751 17.0241 21.8751 18.75Z" fill="#6D31ED"/>
<path d="M21.8751 6.25C21.8751 7.97589 20.476 9.375 18.7501 9.375C17.0242 9.375 15.6251 7.97589 15.6251 6.25C15.6251 4.52411 17.0242 3.125 18.7501 3.125C20.476 3.125 21.8751 4.52411 21.8751 6.25Z" fill="#6D31ED"/>
<path d="M9.37512 12.5C9.37512 14.2259 7.97601 15.625 6.25012 15.625C4.52423 15.625 3.12512 14.2259 3.12512 12.5C3.12512 10.7741 4.52423 9.375 6.25012 9.375C7.97601 9.375 9.37512 10.7741 9.37512 12.5Z" fill="#6D31ED"/>
</g>
<path d="M9.04636 11.1019L15.9506 7.64977M15.9539 17.3519L9.05617 13.903M21.8751 6.25C21.8751 7.97589 20.476 9.375 18.7501 9.375C17.0242 9.375 15.6251 7.97589 15.6251 6.25C15.6251 4.52411 17.0242 3.125 18.7501 3.125C20.476 3.125 21.8751 4.52411 21.8751 6.25ZM9.37512 12.5C9.37512 14.2259 7.97601 15.625 6.25012 15.625C4.52423 15.625 3.12512 14.2259 3.12512 12.5C3.12512 10.7741 4.52423 9.375 6.25012 9.375C7.97601 9.375 9.37512 10.7741 9.37512 12.5ZM21.8751 18.75C21.8751 20.4759 20.476 21.875 18.7501 21.875C17.0242 21.875 15.6251 20.4759 15.6251 18.75C15.6251 17.0241 17.0242 15.625 18.7501 15.625C20.476 15.625 21.8751 17.0241 21.8751 18.75Z" stroke="#6D31ED" stroke-width="1.5"/>
</svg>
