<svg width="26" height="26" viewBox="0 0 26 26" fill="none" xmlns="http://www.w3.org/2000/svg">
<path opacity="0.15" d="M5.38467 10.6279C5.49057 9.51593 6.42453 8.66669 7.54158 8.66669H18.4585C19.5755 8.66669 20.5095 9.51592 20.6154 10.6279L21.4408 19.2946C21.5619 20.5666 20.5617 21.6667 19.2839 21.6667H6.71618C5.4384 21.6667 4.43812 20.5666 4.55927 19.2946L5.38467 10.6279Z" fill="#6D31ED"/>
<path d="M8.66666 11.9275V11.9167M17.3333 11.9275V11.9167M8.66666 8.66668V7.58334C8.66666 6.43407 9.12321 5.33186 9.93587 4.51921C10.7485 3.70655 11.8507 3.25 13 3.25C14.1493 3.25 15.2515 3.70655 16.0641 4.51921C16.8768 5.33186 17.3333 6.43407 17.3333 7.58334V8.66668M8.66666 8.66668H7.41028C6.28342 8.66668 5.34468 9.53044 5.2511 10.6534L4.52887 19.3201C4.42361 20.5833 5.42047 21.6667 6.68806 21.6667H19.3119C20.5795 21.6667 21.5764 20.5833 21.4711 19.3201L20.7489 10.6534C20.6553 9.53044 19.7166 8.66668 18.5897 8.66668H17.3333M8.66666 8.66668H17.3333" stroke="#6D31ED" stroke-width="1.5" stroke-linecap="round" stroke-linejoin="round"/>
<path opacity="0.2" fill-rule="evenodd" clip-rule="evenodd" d="M20.735 1.015C20.5555 1.015 20.41 1.16051 20.41 1.34V1.52485C20.41 1.66389 20.3167 1.78468 20.1883 1.838C20.0598 1.89133 19.9103 1.871 19.8119 1.77265L19.6811 1.6419C19.5542 1.51498 19.3484 1.51498 19.2215 1.6419L18.7619 2.10152C18.635 2.22844 18.635 2.43422 18.7619 2.56114L18.8927 2.69189C18.991 2.79025 19.0113 2.93982 18.958 3.06828C18.9047 3.19669 18.7839 3.29 18.6449 3.29L18.46 3.29C18.2805 3.29 18.135 3.43551 18.135 3.615V4.265C18.135 4.4445 18.2805 4.59001 18.46 4.59001H18.6449C18.7839 4.59001 18.9047 4.68332 18.958 4.81173C19.0113 4.94018 18.991 5.08975 18.8927 5.1881L18.7619 5.31886C18.635 5.44578 18.635 5.65156 18.7619 5.77848L19.2215 6.2381C19.3484 6.36502 19.5542 6.36502 19.6811 6.2381L19.8119 6.10736C19.9102 6.009 20.0598 5.98867 20.1883 6.04201C20.3167 6.09533 20.41 6.21612 20.41 6.35517V6.54001C20.41 6.7195 20.5555 6.86501 20.735 6.86501H21.385C21.5645 6.86501 21.71 6.7195 21.71 6.54001V6.35516C21.71 6.21612 21.8033 6.09533 21.9317 6.04201C22.0602 5.98868 22.2098 6.009 22.3081 6.10736L22.4389 6.2381C22.5658 6.36502 22.7716 6.36502 22.8985 6.2381L23.3581 5.77848C23.485 5.65156 23.485 5.44578 23.3581 5.31886L23.2274 5.18812C23.129 5.08977 23.1087 4.94019 23.162 4.81173C23.2153 4.68332 23.3361 4.59 23.4752 4.59H23.66C23.8395 4.59 23.985 4.4445 23.985 4.265V3.615C23.985 3.43551 23.8395 3.29 23.66 3.29H23.4752C23.3361 3.29 23.2153 3.19668 23.162 3.06827C23.1087 2.9398 23.129 2.79023 23.2274 2.69187L23.3581 2.56114C23.485 2.43422 23.485 2.22844 23.3581 2.10152L22.8985 1.6419C22.7716 1.51498 22.5658 1.51498 22.4389 1.6419L22.3081 1.77265C22.2098 1.871 22.0602 1.89133 21.9317 1.83799C21.8033 1.78468 21.71 1.66389 21.71 1.52486V1.34C21.71 1.16051 21.5645 1.015 21.385 1.015H20.735ZM21.06 4.59001C21.419 4.59001 21.71 4.29899 21.71 3.94C21.71 3.58102 21.419 3.29 21.06 3.29C20.701 3.29 20.41 3.58102 20.41 3.94C20.41 4.29899 20.701 4.59001 21.06 4.59001Z" fill="#6D31ED"/>
<path d="M20.735 1.015H21.385C21.5645 1.015 21.71 1.16051 21.71 1.34V1.52486C21.71 1.66389 21.8033 1.78468 21.9317 1.83799C22.0602 1.89133 22.2098 1.871 22.3081 1.77265L22.4389 1.6419C22.5658 1.51498 22.7716 1.51498 22.8985 1.6419L23.3581 2.10152C23.485 2.22844 23.485 2.43422 23.3581 2.56114L23.2274 2.69187C23.129 2.79023 23.1087 2.9398 23.162 3.06827C23.2153 3.19668 23.3361 3.29 23.4752 3.29L23.66 3.29C23.8395 3.29 23.985 3.43551 23.985 3.615V4.265C23.985 4.4445 23.8395 4.59 23.66 4.59H23.4752C23.3361 4.59 23.2153 4.68332 23.162 4.81173C23.1087 4.94019 23.129 5.08977 23.2274 5.18812L23.3581 5.31886C23.485 5.44578 23.485 5.65156 23.3581 5.77848L22.8985 6.2381C22.7716 6.36502 22.5658 6.36502 22.4389 6.2381L22.3081 6.10736C22.2098 6.009 22.0602 5.98868 21.9317 6.04201C21.8033 6.09533 21.71 6.21612 21.71 6.35516V6.54001C21.71 6.7195 21.5645 6.86501 21.385 6.86501H20.735C20.5555 6.86501 20.41 6.7195 20.41 6.54001V6.35517C20.41 6.21612 20.3167 6.09533 20.1883 6.04201C20.0598 5.98867 19.9102 6.009 19.8119 6.10736L19.6811 6.2381C19.5542 6.36502 19.3484 6.36502 19.2215 6.2381L18.7619 5.77848C18.635 5.65156 18.635 5.44578 18.7619 5.31886L18.8927 5.1881C18.991 5.08975 19.0113 4.94018 18.958 4.81173C18.9047 4.68332 18.7839 4.59001 18.6449 4.59001H18.46C18.2805 4.59001 18.135 4.4445 18.135 4.265V3.615C18.135 3.43551 18.2805 3.29 18.46 3.29L18.6449 3.29C18.7839 3.29 18.9047 3.19669 18.958 3.06828C19.0113 2.93982 18.991 2.79025 18.8927 2.69189L18.7619 2.56114C18.635 2.43422 18.635 2.22844 18.7619 2.10152L19.2215 1.6419C19.3484 1.51498 19.5542 1.51498 19.6811 1.6419L19.8119 1.77265C19.9103 1.871 20.0598 1.89133 20.1883 1.838C20.3167 1.78468 20.41 1.66389 20.41 1.52485V1.34C20.41 1.16051 20.5555 1.015 20.735 1.015Z" stroke="#6D31ED" stroke-width="0.7"/>
<path d="M21.71 3.94C21.71 4.29899 21.419 4.59001 21.06 4.59001C20.701 4.59001 20.41 4.29899 20.41 3.94C20.41 3.58102 20.701 3.29 21.06 3.29C21.419 3.29 21.71 3.58102 21.71 3.94Z" stroke="#6D31ED" stroke-width="0.7"/>
</svg>
