<svg width="26" height="27" viewBox="0 0 26 27" fill="none" xmlns="http://www.w3.org/2000/svg">
<path d="M9.75067 4.67189H4.33402L4.33398 10.0886M21.6673 10.0886V4.67191L16.2506 4.67188M16.2506 22.0053H21.6673L21.6673 16.5886M4.33399 16.5886L4.33398 22.0052L9.75067 22.0053" stroke="#6D31ED" stroke-width="1.5" stroke-linecap="round" stroke-linejoin="round"/>
<path opacity="0.2" fill-rule="evenodd" clip-rule="evenodd" d="M22.4438 11.3984C22.3211 11.3984 22.2216 11.4979 22.2216 11.6207V11.7471C22.2216 11.8421 22.1578 11.9247 22.07 11.9612C21.9821 11.9976 21.8799 11.9837 21.8126 11.9165L21.7232 11.8271C21.6364 11.7403 21.4957 11.7403 21.4089 11.8271L21.0947 12.1414C21.0079 12.2281 21.0079 12.3688 21.0947 12.4556L21.1841 12.545C21.2513 12.6123 21.2652 12.7146 21.2288 12.8024C21.1923 12.8902 21.1097 12.954 21.0146 12.954L20.8882 12.954C20.7655 12.954 20.666 13.0535 20.666 13.1762V13.6207C20.666 13.7434 20.7655 13.8429 20.8882 13.8429H21.0146C21.1097 13.8429 21.1923 13.9067 21.2287 13.9945C21.2652 14.0823 21.2513 14.1846 21.1841 14.2519L21.0947 14.3413C21.0079 14.428 21.0079 14.5688 21.0947 14.6555L21.4089 14.9698C21.4957 15.0566 21.6364 15.0566 21.7232 14.9698L21.8126 14.8804C21.8799 14.8132 21.9821 14.7993 22.07 14.8357C22.1578 14.8722 22.2216 14.9548 22.2216 15.0499V15.1762C22.2216 15.299 22.3211 15.3985 22.4438 15.3985H22.8883C23.011 15.3985 23.1105 15.299 23.1105 15.1762V15.0499C23.1105 14.9548 23.1743 14.8722 23.2621 14.8357C23.3499 14.7993 23.4522 14.8132 23.5194 14.8804L23.6088 14.9698C23.6956 15.0566 23.8363 15.0566 23.9231 14.9698L24.2374 14.6555C24.3242 14.5688 24.3242 14.428 24.2374 14.3413L24.148 14.2519C24.0807 14.1846 24.0668 14.0823 24.1033 13.9945C24.1398 13.9067 24.2224 13.8429 24.3174 13.8429H24.4438C24.5666 13.8429 24.666 13.7434 24.666 13.6207V13.1762C24.666 13.0535 24.5666 12.954 24.4438 12.954L24.3174 12.954C24.2224 12.954 24.1398 12.8902 24.1033 12.8024C24.0668 12.7146 24.0807 12.6123 24.148 12.545L24.2374 12.4556C24.3242 12.3688 24.3242 12.2281 24.2374 12.1414L23.9231 11.8271C23.8363 11.7403 23.6956 11.7403 23.6088 11.8271L23.5194 11.9165C23.4522 11.9837 23.3499 11.9976 23.2621 11.9612C23.1743 11.9247 23.1105 11.8421 23.1105 11.7471V11.6207C23.1105 11.4979 23.011 11.3984 22.8883 11.3984H22.4438ZM22.666 13.8429C22.9115 13.8429 23.1105 13.6439 23.1105 13.3985C23.1105 13.153 22.9115 12.954 22.666 12.954C22.4206 12.954 22.2216 13.153 22.2216 13.3985C22.2216 13.6439 22.4206 13.8429 22.666 13.8429Z" fill="#6D31ED"/>
<path d="M22.4438 11.3984H22.8883C23.011 11.3984 23.1105 11.4979 23.1105 11.6207V11.7471C23.1105 11.8421 23.1743 11.9247 23.2621 11.9612C23.3499 11.9976 23.4522 11.9837 23.5194 11.9165L23.6088 11.8271C23.6956 11.7403 23.8363 11.7403 23.9231 11.8271L24.2374 12.1414C24.3242 12.2281 24.3242 12.3688 24.2374 12.4556L24.148 12.545C24.0807 12.6123 24.0668 12.7146 24.1033 12.8024C24.1398 12.8902 24.2224 12.954 24.3174 12.954L24.4438 12.954C24.5666 12.954 24.666 13.0535 24.666 13.1762V13.6207C24.666 13.7434 24.5666 13.8429 24.4438 13.8429H24.3174C24.2224 13.8429 24.1398 13.9067 24.1033 13.9945C24.0668 14.0823 24.0807 14.1846 24.148 14.2519L24.2374 14.3413C24.3242 14.428 24.3242 14.5688 24.2374 14.6555L23.9231 14.9698C23.8363 15.0566 23.6956 15.0566 23.6088 14.9698L23.5194 14.8804C23.4522 14.8132 23.3499 14.7993 23.2621 14.8357C23.1743 14.8722 23.1105 14.9548 23.1105 15.0499V15.1762C23.1105 15.299 23.011 15.3985 22.8883 15.3985H22.4438C22.3211 15.3985 22.2216 15.299 22.2216 15.1762V15.0499C22.2216 14.9548 22.1578 14.8722 22.07 14.8357C21.9821 14.7993 21.8799 14.8132 21.8126 14.8804L21.7232 14.9698C21.6364 15.0566 21.4957 15.0566 21.4089 14.9698L21.0947 14.6555C21.0079 14.5688 21.0079 14.428 21.0947 14.3413L21.1841 14.2519C21.2513 14.1846 21.2652 14.0823 21.2287 13.9945C21.1923 13.9067 21.1097 13.8429 21.0146 13.8429H20.8882C20.7655 13.8429 20.666 13.7434 20.666 13.6207V13.1762C20.666 13.0535 20.7655 12.954 20.8882 12.954L21.0146 12.954C21.1097 12.954 21.1923 12.8902 21.2288 12.8024C21.2652 12.7146 21.2513 12.6123 21.1841 12.545L21.0947 12.4556C21.0079 12.3688 21.0079 12.2281 21.0947 12.1414L21.4089 11.8271C21.4957 11.7403 21.6364 11.7403 21.7232 11.8271L21.8126 11.9165C21.8799 11.9837 21.9821 11.9976 22.07 11.9612C22.1578 11.9247 22.2216 11.8421 22.2216 11.7471V11.6207C22.2216 11.4979 22.3211 11.3984 22.4438 11.3984Z" stroke="#6D31ED" stroke-width="0.5"/>
<path d="M23.1105 13.3985C23.1105 13.6439 22.9115 13.8429 22.666 13.8429C22.4206 13.8429 22.2216 13.6439 22.2216 13.3985C22.2216 13.153 22.4206 12.954 22.666 12.954C22.9115 12.954 23.1105 13.153 23.1105 13.3985Z" stroke="#6D31ED" stroke-width="0.5"/>
<path d="M10.36 9.9L13.22 17H11.14L10.8 16.01H8.41L8.08 17H6.06L8.89 9.9H10.36ZM9.58 12.33L8.88 14.55H10.32L9.58 12.33ZM17.3403 11.93V11.6H18.9703V17H17.4003V16.57C17.1403 16.76 16.7103 17.11 15.9103 17.11C15.5703 17.11 14.9503 17.04 14.3203 16.46C14.0103 16.18 13.3703 15.46 13.3703 14.3C13.3703 13.98 13.4303 13.25 13.9603 12.53C14.4503 11.89 15.1903 11.49 16.0003 11.49C16.7003 11.49 17.1203 11.78 17.3403 11.93ZM15.3503 15.17C15.5703 15.39 15.8903 15.53 16.2103 15.53C16.8903 15.52 17.4303 14.98 17.4303 14.3C17.4203 13.63 16.8803 13.08 16.2003 13.08C15.5303 13.08 14.9803 13.64 14.9803 14.31C14.9803 14.63 15.1103 14.94 15.3503 15.17Z" fill="#B898FF"/>
</svg>
