<svg width="17" height="17" viewBox="0 0 17 17" fill="none" xmlns="http://www.w3.org/2000/svg">
<path fill-rule="evenodd" clip-rule="evenodd" d="M13.9282 3.18702C12.4639 1.72805 10.5165 0.924192 8.44188 0.92334C4.16694 0.92334 0.687735 4.38579 0.686024 8.64142C0.685437 10.0018 1.04251 11.3298 1.72125 12.5003L0.620972 16.5L4.73247 15.4266C5.86536 16.0417 7.14079 16.3658 8.43872 16.3662H8.442C12.7165 16.3662 16.196 12.9034 16.1977 8.6476C16.1985 6.5851 15.3926 4.64592 13.9282 3.18702ZM8.44188 15.0626H8.43919C7.28253 15.0621 6.14811 14.7528 5.15822 14.1683L4.92296 14.0292L2.48312 14.6662L3.13432 12.2988L2.98099 12.0561C2.3357 11.0347 1.99494 9.85406 1.99552 8.64188C1.99687 5.10471 4.88874 2.22696 8.44447 2.22696C10.1663 2.22752 11.7849 2.89569 13.0019 4.10833C14.2189 5.32098 14.8888 6.93285 14.8882 8.64711C14.8867 12.1846 11.995 15.0626 8.44188 15.0626Z" fill="#4867A9"/>
<path d="M10.6535 9.63024C10.8312 9.69469 11.7841 10.1611 11.9778 10.2577C12.1715 10.3543 12.3008 10.4025 12.3491 10.4829C12.3976 10.5635 12.3976 10.9496 12.2362 11.4001C12.0746 11.8505 11.3005 12.2617 10.9281 12.3171C10.5941 12.3668 10.1718 12.3875 9.70753 12.2407C9.42599 12.1518 9.06508 12.0333 8.60272 11.8344C6.65879 10.9991 5.38908 9.05105 5.29224 8.9223L5.29051 8.92001C5.18742 8.78304 4.50098 7.87107 4.50098 6.92722C4.50098 5.97792 5.00153 5.5114 5.17913 5.31829C5.3568 5.12509 5.56678 5.0769 5.69595 5.0769C5.8252 5.0769 5.95445 5.07805 6.06736 5.08367C6.18638 5.08954 6.34603 5.03879 6.50345 5.4147C6.66491 5.80098 7.05245 6.75028 7.1008 6.84678C7.14932 6.94328 7.1817 7.05592 7.11704 7.18467C7.05245 7.3133 6.84238 7.58512 6.6326 7.84437C6.54661 7.95049 6.43468 8.0448 6.54759 8.238C6.6607 8.43098 7.04959 9.06254 7.62564 9.57394C8.36589 10.231 8.99029 10.4347 9.1841 10.5312C9.37794 10.6278 9.49085 10.6117 9.60396 10.4829C9.71706 10.3543 10.0884 9.91982 10.2176 9.72681C10.3467 9.53381 10.476 9.56586 10.6535 9.63024Z" fill="#4867A9"/>
</svg>
