<svg width="150" height="150" viewBox="0 0 150 150" fill="none" xmlns="http://www.w3.org/2000/svg">
<rect width="150" height="150" rx="20" fill="#F4F4F4"/>
<path opacity="0.15" d="M45.4444 110H104.556C109.219 110 113 104.068 113 96.75V57H37V96.75C37 104.068 40.7807 110 45.4444 110Z" fill="#6D31ED"/>
<path d="M112.5 56.6667V48.3333C112.5 43.731 108.769 40 104.167 40H45.8333C41.231 40 37.5 43.731 37.5 48.3333V56.6667M112.5 56.6667V101.667C112.5 106.269 108.769 110 104.167 110H45.8333C41.231 110 37.5 106.269 37.5 101.667V56.6667M112.5 56.6667H37.5M89 97.5H105.667" stroke="#6D31ED" stroke-width="1.5" stroke-linecap="round" stroke-linejoin="round"/>
</svg>
