<svg width="17" height="17" viewBox="0 0 17 17" fill="none" xmlns="http://www.w3.org/2000/svg">
<path d="M9.92718 7.52454L15.5623 0.974132C15.5822 0.951055 15.5868 0.918527 15.5741 0.89086C15.5614 0.863192 15.5337 0.845456 15.5033 0.845456H14.1587C14.136 0.845456 14.1145 0.855349 14.0997 0.872547L9.23883 6.5228L5.36108 0.879234C5.34655 0.85809 5.32254 0.845456 5.29689 0.845456H0.758301C0.729382 0.845456 0.702843 0.86148 0.689377 0.887072C0.67591 0.912665 0.677733 0.943612 0.69411 0.967446L6.61067 9.57813L0.69926 16.4492C0.679407 16.4723 0.674818 16.5048 0.687513 16.5325C0.700208 16.5602 0.727859 16.5779 0.758301 16.5779H2.10295C2.12564 16.5779 2.1472 16.568 2.16199 16.5508L7.29887 10.5797L11.3973 16.5441C11.4118 16.5653 11.4358 16.5779 11.4615 16.5779H16C16.029 16.5779 16.0555 16.5619 16.069 16.5363C16.0824 16.5107 16.0806 16.4798 16.0642 16.4559L9.92718 7.52454ZM12.1346 15.4559L8.05431 9.61969C8.05338 9.61814 8.0524 9.61662 8.05135 9.61513L7.44844 8.75278L2.73693 2.01345H4.61218L8.46029 7.51791L8.52412 7.47329L8.46029 7.51792L9.0632 8.38027L14.0099 15.4559H12.1346Z" fill="#4867A9" stroke="#4867A9" stroke-width="0.155767" stroke-linejoin="round"/>
</svg>
